<?xml version="1.0" encoding="utf-8"?>
<!-- Generator: Adobe Illustrator 23.0.5, SVG Export Plug-In . SVG Version: 6.00 Build 0)  -->
<svg version="1.1" id="Layer_1" xmlns="http://www.w3.org/2000/svg" xmlns:xlink="http://www.w3.org/1999/xlink" x="0px" y="0px"
	 viewBox="0 0 1400 600" style="enable-background:new 0 0 1400 600;" xml:space="preserve">
<style type="text/css">
	.st0{fill:#FFFFFF;}
	.st1{fill:#313C46;}
	.st2{fill:#19B0B7;}
	.st3{fill:#6EC6D8;}
	.st4{fill:none;stroke:#D7D7D6;stroke-miterlimit:10;}
	.st5{opacity:0.6;}
	.st6{fill:#F06024;}
	.st7{fill:#FFF8E3;}
	.st8{fill:#F59155;}
	.st9{fill:#FFDC74;}
	.st10{fill:#FFFFFF;stroke:#444441;stroke-width:4;stroke-miterlimit:10;}
	.st11{fill:#6CC0D3;stroke:#000000;stroke-miterlimit:10;}
	.st12{fill:#6CC0D3;}
	.st13{fill:#2ED337;}
	.st14{fill:#FFB8B8;}
	.st15{fill:#F0626E;}
	.st16{fill:#213150;}
	.st17{fill:#F9F2FF;}
	.st18{fill:#FFFFFF;stroke:#6B6B66;stroke-width:3;stroke-miterlimit:10;}
	.st19{fill:#DED6E8;}
	.st20{fill:#116D7C;}
</style>
<g>
	<polygon class="st0" points="816.5,497.4 727.7,481.5 751,371.2 839.8,387.1 	"/>
	<path class="st1" d="M726.2,482.4l0.2-1.1l23.6-111.4l91.2,16.3l-0.2,1.1l-23.6,111.4L726.2,482.4z M752,372.6l-22.9,108.1
		l86.4,15.5L838.4,388L752,372.6z"/>
</g>
<g>
	<polygon class="st0" points="731,485.8 662.3,431.7 741.7,346.3 810.5,400.4 	"/>
	<path class="st1" d="M660.5,431.9l0.8-0.9l80.3-86.3l0.9,0.7l69.7,54.8l-0.8,0.9l-80.3,86.3l-0.9-0.7L660.5,431.9z M741.9,348
		L664,431.6l66.9,52.6l77.8-83.6L741.9,348z"/>
</g>
<g>
	<path class="st1" d="M174.5,614.4L43.1,598.6c-2.2-0.3-3.8-2.3-3.5-4.5L60,424c0.3-2.2,2.3-3.8,4.5-3.5l131.4,15.8
		c2.2,0.3,3.8,2.3,3.5,4.5L179,610.9C178.7,613.1,176.7,614.7,174.5,614.4z M44.4,594l129.9,15.6L194.6,441L64.7,425.3L44.4,594z"/>
	<path class="st0" d="M173.9,610.7L44.5,595.1c-0.9-0.1-1.5-0.9-1.4-1.8l20.2-167.6c0.1-0.9,0.9-1.5,1.8-1.4l129.5,15.6
		c0.9,0.1,1.5,0.9,1.4,1.8l-20.2,167.6C175.6,610.1,174.8,610.8,173.9,610.7z"/>
	<g>
		
			<rect x="126.9" y="404" transform="matrix(0.1194 -0.9928 0.9928 0.1194 -320.3773 515.1498)" class="st0" width="6.7" height="68.4"/>
		<path class="st1" d="M165.7,448l-72.3-8.7l1.3-11l72.3,8.7L165.7,448z M98.2,435.5l63.6,7.7l0.3-2.3l-63.6-7.7L98.2,435.5z"/>
	</g>
	<g>
		<path class="st0" d="M141.6,423.3c1.1-1.5,1.9-3.1,2.1-5c0.7-6-3.6-11.5-9.6-12.3c-6-0.7-11.5,3.6-12.3,9.6
			c-0.2,1.9,0.2,3.7,0.9,5.4l-4.7-0.6l-1.1,9.3l28.2,3.4l1.1-9.3L141.6,423.3z"/>
		<path class="st1" d="M144.8,435.3l-28.2-3.4c-1.2-0.1-2-1.2-1.9-2.4l1.1-9.3c0.1-1.2,1.2-2,2.4-1.9l1.4,0.2
			c-0.2-1.1-0.2-2.1-0.1-3.1c0.9-7.2,7.5-12.4,14.7-11.5c7.2,0.9,12.4,7.5,11.5,14.7c-0.1,1-0.4,2-0.8,3l1.4,0.2
			c1.2,0.1,2,1.2,1.9,2.4l-1.1,9.3C147.1,434.6,146,435.5,144.8,435.3z M119.3,427.9l23.9,2.9l0.6-4.9l-2.5-0.3
			c-0.8-0.1-1.4-0.6-1.7-1.3c-0.3-0.7-0.2-1.5,0.2-2.1c1-1.4,1.6-2.7,1.7-4c0.6-4.8-2.9-9.3-7.7-9.9c-4.8-0.6-9.3,2.9-9.8,7.7
			c-0.2,1.3,0.1,2.7,0.7,4.3c0.3,0.7,0.2,1.5-0.3,2.1c-0.5,0.6-1.2,0.9-2,0.8l-2.5-0.3L119.3,427.9z"/>
	</g>
	<g>
		<path class="st2" d="M87.8,520.6L66.5,518l2.6-21.3l21.3,2.6L87.8,520.6z M67.8,517l19.1,2.3l2.3-19.1L70.1,498L67.8,517z"/>
		<path class="st1" d="M89.1,522.3l-24.3-2.9l2.9-24.3l24.3,2.9L89.1,522.3z M69.5,515.7l16.1,1.9l1.9-16.1l-16.1-1.9L69.5,515.7z"
			/>
	</g>
	<g>
		<path class="st2" d="M83.6,556l-21.3-2.6l2.6-21.3l21.3,2.6L83.6,556z M63.5,552.4l19.1,2.3l2.3-19.1l-19.1-2.3L63.5,552.4z"/>
		<path class="st1" d="M84.9,557.6l-24.3-2.9l2.9-24.3l24.3,2.9L84.9,557.6z M65.2,551.1l16.1,1.9l1.9-16.1L67.1,535L65.2,551.1z"/>
	</g>
	<g>
		<path class="st2" d="M79.6,588.7l-21.3-2.6l2.6-21.3l21.3,2.6L79.6,588.7z M59.6,585.2l19.1,2.3l2.3-19.1l-19.1-2.3L59.6,585.2z"
			/>
		<path class="st1" d="M80.9,590.4l-24.3-2.9l2.9-24.3l24.3,2.9L80.9,590.4z M61.3,583.9l16.1,1.9l1.9-16.1l-16.1-1.9L61.3,583.9z"
			/>
	</g>
	<polygon class="st1" points="171.9,515.1 100.7,506.5 101.2,502.1 172.5,510.7 	"/>
	<polygon class="st1" points="170.2,529.8 98.9,521.2 99.4,516.8 170.7,525.4 	"/>
	
		<rect x="129.8" y="507.6" transform="matrix(0.1195 -0.9928 0.9928 0.1195 -423.3969 609.5625)" class="st1" width="4.4" height="71.8"/>
	
		<rect x="128" y="522.3" transform="matrix(0.1195 -0.9928 0.9928 0.1195 -439.5874 620.7794)" class="st1" width="4.4" height="71.8"/>
	
		<rect x="126.2" y="540.4" transform="matrix(0.1194 -0.9928 0.9928 0.1194 -459.0877 635.0308)" class="st1" width="4.4" height="71.8"/>
	<polygon class="st1" points="162,597.5 90.8,589 91.3,584.6 162.5,593.1 	"/>
	<g>
		<path class="st3" d="M108.1,454.6c0,0-1.7-2.2-2.2-2.2c0,0,0-1.4,2-0.8c2,0.6,2.9,1.4,2.9,1.4s2.9,2.4,2.7,8.1
			c-0.2,5.7,1.3,8.7,1.3,8.7s2.2,4.7,5.7,4.9l1.8-12.9c0,0,1-6.4-3.8-6.4l0.2-1.3l14.2,2l-0.2,1.2c0,0-3.3-0.8-4.5,3l-0.6,2.3
			l-1.8,13c0,0,7.5,1.1,10-11.3c0,0,2.4-8.9,8.6-7.7c0,0,1.7,0.2,0.3,1.3c-1.4,1.1-1.7,0.7-2.1,1.7l-1,1.6l-0.8,3.7
			c0,0-0.4,9.5-7.8,12c0,0-2.5,1.5-7.6,0.9l-1.5,11.5c0,0-0.1,5.3,3.7,5.4l-0.1,1.1l-14-1.9l0.1-1c0,0,4.4,1.3,5.2-5.7l1.3-10.1
			c0,0-9.4-1.9-11.6-8.5c0,0-0.7-4.7-0.2-9.3C108.4,459.3,108.6,454.8,108.1,454.6z"/>
		<path class="st4" d="M108.2,450.3c0,0,6.1,0.3,6.8,6.2c0,0-0.3,7.8-0.1,8.1c0.2,0.3-0.4,5.7,4.1,8l0.8,0.1l1.6-12.2
			c0,0,0-3.7-2.5-4.3"/>
		<path class="st4" d="M144,455.1c0,0-6-1.3-8.1,4.2c0,0-1.8,7.6-2,7.9c-0.2,0.3-1.1,5.6-6.1,6.7l-0.8-0.1l1.6-12.2
			c0,0,1-3.6,3.5-3.5"/>
	</g>
</g>
<g>
	<g class="st5">
		<g>
			<path class="st6" d="M610.7,614.2l-105.9-44.1c-0.8-0.3-1.7,0-2.1,0.9L444,712c-0.3,0.8,0,1.7,0.9,2.1l105.9,44.1
				c0.8,0.3,1.7,0,2.1-0.9l58.7-141C611.9,615.5,611.5,614.6,610.7,614.2z"/>
			<path class="st6" d="M611.1,613.2l-105.9-44.1c-1.4-0.6-3,0.1-3.6,1.5l-2.8,6.8l-4.8-2c-0.5-0.2-0.9-0.2-0.9-0.1l-0.3,0.7
				c-0.1,0.1,0.3,0.4,0.7,0.6l4.8,2l-0.8,2l-4.8-2c-0.5-0.2-0.9-0.2-0.9-0.1l-0.3,0.7c-0.1,0.1,0.3,0.4,0.7,0.6l4.8,2l-3.6,8.6
				l-4.8-2c-0.5-0.2-0.9-0.2-0.9-0.1l-0.1,0.3l0,0l-0.1,0.3c-0.1,0.1,0.3,0.4,0.7,0.6l4.8,2l-0.8,2l-4.8-2c-0.5-0.2-0.9-0.2-0.9-0.1
				l-0.3,0.7c-0.1,0.1,0.3,0.4,0.7,0.6l4.8,2l-2.6,6.3l-4.7-2c-0.5-0.2-0.9-0.2-0.9-0.1l-0.3,0.7c-0.1,0.1,0.3,0.4,0.7,0.6l4.7,2
				l-0.8,2l-4.7-2c-0.5-0.2-0.9-0.2-0.9-0.1l-0.1,0.3l0,0l-0.1,0.3c-0.1,0.1,0.3,0.4,0.7,0.6l4.7,2l-3.6,8.6l-4.7-2
				c-0.5-0.2-0.9-0.2-0.9-0.1l-0.1,0.3l0,0l-0.1,0.3c-0.1,0.1,0.3,0.4,0.7,0.6l4.7,2l-0.8,2l-4.7-2c-0.5-0.2-0.9-0.2-0.9-0.1
				l-0.1,0.3h0l-0.1,0.3c-0.1,0.1,0.3,0.4,0.7,0.6l4.7,2l-3.3,8l-4.8-2c-0.5-0.2-0.9-0.2-0.9-0.1l-0.3,0.7c-0.1,0.1,0.3,0.4,0.7,0.6
				l4.8,2l-0.8,2l-4.8-2c-0.5-0.2-0.9-0.2-0.9-0.1l-0.1,0.3l0,0l-0.1,0.3c-0.1,0.1,0.3,0.4,0.7,0.6l4.8,2l-3.5,8.4l-4.7-2
				c-0.5-0.2-0.9-0.2-0.9-0.1l-0.3,0.7c-0.1,0.1,0.3,0.4,0.7,0.6l4.7,2l-0.8,2l-4.7-2c-0.5-0.2-0.9-0.2-0.9-0.1l-0.1,0.3l0,0
				l-0.1,0.3c-0.1,0.1,0.3,0.4,0.7,0.6l4.7,2l-3.6,8.6l-4.7-2c-0.5-0.2-0.9-0.2-0.9-0.1l-0.1,0.3l0,0l-0.1,0.3
				c-0.1,0.1,0.3,0.4,0.7,0.6l4.7,2l-0.8,2l-4.7-2c-0.5-0.2-0.9-0.2-0.9-0.1l-0.3,0.7c-0.1,0.1,0.3,0.4,0.7,0.6l4.7,2l-3.3,8l-4.8-2
				c-0.5-0.2-0.9-0.2-0.9-0.1l-0.3,0.7c-0.1,0.1,0.3,0.4,0.7,0.6l4.8,2l-0.8,2l-4.8-2c-0.5-0.2-0.9-0.2-0.9-0.1l-0.1,0.3h0l-0.1,0.3
				c-0.1,0.1,0.3,0.4,0.7,0.6l4.8,2l-3,7.1l-4.8-2c-0.5-0.2-0.9-0.2-0.9-0.1l-0.3,0.6c-0.1,0.1,0.3,0.4,0.7,0.6l4.8,2l-0.8,2l-4.8-2
				c-0.5-0.2-0.9-0.2-0.9-0.1l-0.1,0.3l0,0l-0.1,0.3c-0.1,0.1,0.3,0.4,0.7,0.6l4.8,2l-3.6,8.6l-4.8-2c-0.5-0.2-0.9-0.2-0.9-0.1
				l-0.3,0.7c-0.1,0.1,0.3,0.4,0.7,0.6l4.8,2l-0.8,2l-4.8-2c-0.5-0.2-0.9-0.2-0.9-0.1l-0.3,0.7c-0.1,0.1,0.3,0.4,0.7,0.6l4.8,2
				l-3.3,8l-4.9-2c-0.5-0.2-0.9-0.2-0.9-0.1l-0.3,0.7c-0.1,0.1,0.3,0.4,0.7,0.6l4.9,2l-0.8,2l-4.9-2c-0.5-0.2-0.9-0.2-0.9-0.1
				l-0.1,0.3h0l-0.1,0.3c-0.1,0.1,0.3,0.4,0.7,0.6l4.9,2l-3,7.2c-0.6,1.4,0.1,3,1.5,3.6l105.9,44.1c0.3,0.1,0.7,0.2,1,0.2
				c1.1,0,2.1-0.7,2.5-1.7l58.7-141c0.3-0.7,0.3-1.4,0-2.1C612.3,614,611.8,613.5,611.1,613.2z M610.5,615.9l-58.7,141
				c-0.1,0.2-0.3,0.3-0.4,0.3L445.3,713c-0.2-0.1-0.3-0.4-0.2-0.6l3-7.2l3.1,1.3c0,0.5,0.3,1,0.8,1.3c0.7,0.3,1.6,0,1.9-0.8
				c0.3-0.7,0-1.6-0.8-1.9c-0.5-0.2-1,0-1.4,0.3l-3.1-1.3l0.8-2l3,1.3c0,0.5,0.3,1,0.8,1.3c0.7,0.3,1.6,0,1.9-0.8
				c0.3-0.7,0-1.6-0.8-1.9c-0.5-0.2-1,0-1.4,0.3l-3-1.3l3.3-8l3.1,1.3c0,0.5,0.3,1,0.8,1.3c0.8,0.3,1.6,0,1.9-0.8
				c0.3-0.7,0-1.6-0.8-1.9c-0.5-0.2-1,0-1.4,0.3l-3.1-1.3l0.8-2l3.1,1.3c0,0.5,0.3,1,0.8,1.3c0.8,0.3,1.6,0,1.9-0.8
				c0.3-0.8,0-1.6-0.8-1.9c-0.5-0.2-1,0-1.4,0.3l-3.1-1.3l3.6-8.6l3.1,1.3c0,0.5,0.3,1,0.8,1.3c0.7,0.3,1.6,0,1.9-0.8
				c0.3-0.7,0-1.6-0.8-1.9c-0.5-0.2-1,0-1.4,0.3L459,679l0.8-2l3.1,1.3c0,0.5,0.3,1,0.8,1.3c0.7,0.3,1.6,0,1.9-0.8
				c0.3-0.7,0-1.6-0.8-1.9c-0.5-0.2-1,0-1.4,0.3l-3.1-1.3l3-7.1l3.1,1.3c0,0.5,0.3,1,0.8,1.3c0.7,0.3,1.6,0,1.9-0.8
				c0.3-0.7,0-1.6-0.8-1.9c-0.5-0.2-1,0-1.4,0.3l-3.1-1.3l0.8-2l3.1,1.3c0,0.5,0.3,1,0.8,1.3c0.7,0.3,1.6,0,1.9-0.8
				c0.3-0.7,0-1.6-0.8-1.9c-0.5-0.2-1,0-1.4,0.3l-3.1-1.3l3.3-8l3.2,1.3c0,0.5,0.3,1,0.8,1.3c0.7,0.3,1.6,0,1.9-0.8
				c0.3-0.7,0-1.6-0.8-1.9c-0.5-0.2-1,0-1.4,0.3l-3.2-1.3l0.8-2l3.2,1.3c0,0.5,0.3,1,0.8,1.3c0.7,0.3,1.6,0,1.9-0.8
				c0.3-0.7,0-1.6-0.8-1.9c-0.5-0.2-1,0-1.4,0.3l-3.2-1.3l3.6-8.6l3.2,1.3c0,0.5,0.3,1,0.8,1.3c0.7,0.3,1.6,0,1.9-0.8
				c0.3-0.7,0-1.6-0.8-1.9c-0.5-0.2-1,0-1.4,0.3l-3.2-1.3l0.8-2l3.2,1.3c0,0.5,0.3,1,0.8,1.3c0.7,0.3,1.6,0,1.9-0.8
				c0.3-0.7,0-1.6-0.8-1.9c-0.5-0.2-1,0-1.4,0.3l-3.2-1.3l3.5-8.4l3.1,1.3c0,0.5,0.3,1,0.8,1.3c0.7,0.3,1.6,0,1.9-0.8
				c0.3-0.7,0-1.6-0.8-1.9c-0.5-0.2-1,0-1.4,0.3l-3.1-1.3l0.8-2l3.1,1.3c0,0.5,0.3,1,0.8,1.3c0.8,0.3,1.6,0,1.9-0.8
				c0.3-0.7,0-1.6-0.8-1.9c-0.5-0.2-1,0-1.4,0.3l-3.1-1.3l3.3-8l3.2,1.3c0,0.5,0.3,1,0.8,1.3c0.7,0.3,1.6,0,1.9-0.8
				c0.3-0.7,0-1.6-0.8-1.9c-0.5-0.2-1,0-1.4,0.3l-3.2-1.3l0.8-2l3.2,1.3c0,0.5,0.3,1,0.8,1.3c0.8,0.3,1.6,0,1.9-0.8
				c0.3-0.7,0-1.6-0.8-1.9c-0.5-0.2-1,0-1.4,0.3l-3.2-1.3l3.6-8.6l3.2,1.3c0,0.5,0.3,1,0.8,1.3c0.7,0.3,1.6,0,1.9-0.8
				c0.3-0.8,0-1.6-0.8-1.9c-0.5-0.2-1,0-1.4,0.3l-3.2-1.3l0.8-2l3.2,1.3c0,0.5,0.3,1,0.8,1.3c0.7,0.3,1.6,0,1.9-0.8
				c0.3-0.7,0-1.6-0.8-1.9c-0.5-0.2-1,0-1.4,0.3l-3.2-1.3l2.6-6.3l3.1,1.3c0,0.5,0.3,1,0.8,1.3c0.7,0.3,1.6,0,1.9-0.8
				c0.3-0.7,0-1.6-0.8-1.9c-0.5-0.2-1,0-1.4,0.3l-3.1-1.3l0.8-2l3.1,1.3c0,0.5,0.3,1,0.8,1.3c0.7,0.3,1.6,0,1.9-0.8
				c0.3-0.7,0-1.6-0.8-1.9c-0.5-0.2-1,0-1.4,0.3l-3.1-1.3l3.6-8.6l3.1,1.3c0,0.5,0.3,1,0.8,1.2c0.8,0.3,1.6,0,1.9-0.8
				c0.3-0.8,0-1.6-0.8-1.9c-0.5-0.2-1,0-1.4,0.3l-3.1-1.3l0.8-2l3.1,1.3c0,0.5,0.3,1,0.8,1.3c0.7,0.3,1.6,0,1.9-0.8
				c0.3-0.8,0-1.6-0.8-1.9c-0.5-0.2-1,0-1.4,0.3l-3.1-1.3l2.8-6.8c0.1-0.2,0.2-0.2,0.4-0.2c0,0,0.1,0,0.1,0l105.9,44.1
				c0.1,0.1,0.2,0.2,0.2,0.2C610.5,615.6,610.5,615.7,610.5,615.9z"/>
		</g>
	</g>
	<g>
		<g>
			<polygon class="st7" points="526.1,562.5 534.8,575.2 535.3,574.6 537.5,574.6 541.3,570.9 541.2,568.2 541.7,567.6 528.1,560.3 
							"/>
			<path class="st1" d="M534.8,576C534.8,576,534.8,576,534.8,576c-0.3,0-0.5-0.1-0.6-0.3l-8.7-12.7c-0.2-0.3-0.2-0.7,0.1-0.9l2-2.2
				c0.2-0.3,0.6-0.3,0.9-0.2l13.5,7.3c0.2,0.1,0.3,0.3,0.4,0.5c0,0.2,0,0.5-0.2,0.6l-0.3,0.3l0.1,2.5c0,0.2-0.1,0.4-0.2,0.6
				l-3.8,3.7c-0.1,0.1-0.3,0.2-0.5,0.2l-1.9,0l-0.3,0.3C535.2,575.9,535,576,534.8,576z M527.1,562.6l7.8,11.4
				c0.1-0.1,0.3-0.1,0.4-0.1l1.9,0l3.3-3.2l-0.1-2.4c0-0.1,0-0.3,0.1-0.4l-12.2-6.5L527.1,562.6z"/>
		</g>
		<polygon class="st1" points="528.8,559.6 525.5,563.2 519.7,554.7 		"/>
		<g>
			<path class="st8" d="M626.8,657.8l1.7-1.9l3.1-3.5l0.2-0.2l1.9-2.1l9.3,8.4c1.6,1.4,2.2,3.4,1.3,4.4l-3.6,4
				c-0.9,1-2.9,0.7-4.5-0.8L626.8,657.8z"/>
			<path class="st1" d="M639.2,668.3c-1.2,0-2.5-0.6-3.6-1.6l-9.3-8.4c-0.3-0.3-0.3-0.8-0.1-1.1l6.9-7.6c0.1-0.2,0.4-0.3,0.6-0.3
				c0.2,0,0.4,0.1,0.5,0.2l9.3,8.4c1.1,1,1.9,2.4,1.9,3.6c0,0.8-0.2,1.4-0.6,1.9l-3.6,4C640.7,668,640,668.3,639.2,668.3z
				 M627.9,657.7l8.8,7.9c0.8,0.7,1.8,1.2,2.6,1.2c0.3,0,0.7-0.1,0.9-0.3l3.6-4c0.2-0.2,0.3-0.5,0.2-0.8c0-0.8-0.6-1.8-1.4-2.5
				l-8.8-7.9L627.9,657.7z"/>
		</g>
		<g>
			<path class="st9" d="M542.9,572.8c0,0-0.1-0.1-0.1-0.1c-1.7-1.6-2.5-3.5-1.8-4.3l0.7-0.8l91.7,82.3l-2,2.3L542.9,572.8z"/>
			<path class="st1" d="M631.3,652.9c-0.2,0-0.4-0.1-0.5-0.2l-88.4-79.4l-0.2-0.1c-2.1-1.9-2.9-4.2-1.8-5.3l0.7-0.8
				c0.3-0.3,0.8-0.3,1.1-0.1l91.7,82.3c0.2,0.1,0.2,0.3,0.3,0.5c0,0.2-0.1,0.4-0.2,0.6l-2,2.3C631.8,652.8,631.6,652.9,631.3,652.9z
				 M541.7,568.7l-0.2,0.2c-0.2,0.3,0.1,1.6,1.7,3.2l88,79l1-1.1L541.7,568.7z"/>
		</g>
		<g>
			<path class="st9" d="M628.2,655.7l-88.4-79.4c-1.8-1.6-2.7-3.5-2-4.3l0.9-1c0.7-0.7,2.6-0.1,4.3,1.4c0,0,0.1,0.1,0.1,0.1
				l88.4,79.4L628.2,655.7z"/>
			<path class="st1" d="M628.2,656.4c-0.2,0-0.4-0.1-0.5-0.2l-88.4-79.4c-1.9-1.7-3.2-4.1-2.1-5.4l0.9-1c0.2-0.3,0.7-0.6,1.4-0.6
				c1.1,0,2.6,0.7,4,1.9c0,0,0.1,0.1,0.1,0.1l88.4,79.4c0.3,0.3,0.3,0.8,0.1,1.1l-3.3,3.7C628.6,656.3,628.4,656.4,628.2,656.4z
				 M539.4,571.5c-0.2,0-0.2,0-0.3,0l-0.9,1c-0.2,0.2,0.2,1.6,2,3.2l87.9,78.9l2.3-2.6l-87.9-78.9C541.2,572,540,571.5,539.4,571.5z
				"/>
		</g>
		<g>
			<path class="st9" d="M534.8,575.2l0.4-0.5c0.7-0.8,2.7-0.1,4.5,1.6l88.4,79.4l-1.7,1.8L534.8,575.2z"/>
			<path class="st1" d="M626.5,658.3c-0.2,0-0.4-0.1-0.5-0.2l-91.7-82.3c-0.2-0.1-0.2-0.3-0.3-0.5c0-0.2,0.1-0.4,0.2-0.6l0.4-0.5
				c0.2-0.3,0.7-0.6,1.4-0.6c1.2,0,2.8,0.8,4.2,2l88.4,79.4c0.1,0.1,0.2,0.3,0.3,0.5c0,0.2-0.1,0.4-0.2,0.6l-1.7,1.8
				C626.9,658.2,626.7,658.3,626.5,658.3z M535.9,575.2l90.5,81.2l0.6-0.7l-87.9-78.9c-1.3-1.1-2.5-1.7-3.1-1.7
				C536,575.2,536,575.2,535.9,575.2z"/>
		</g>
	</g>
	<g>
		<path class="st3" d="M532.8,611.1c0,0-1-2.1-1.4-2.3c0,0,0.3-1.1,1.8-0.2c1.5,0.9,2.1,1.7,2.1,1.7s1.9,2.6,0.5,7.2
			c-1.4,4.6-0.8,7.4-0.8,7.4s0.8,4.3,3.7,5.2L543,620c0,0,2.2-5-1.8-6l0.4-1.1l11.3,4.5l-0.4,0.9c0,0-2.6-1.3-4.3,1.5l-1,1.7
			l-4.2,10.3c0,0,5.9,2.4,10.6-7.2c0,0,3.8-6.8,8.7-4.6c0,0,1.4,0.5,0,1.2s-1.5,0.3-2.1,1l-1.1,1.2l-1.4,2.9c0,0-2.3,7.7-8.9,8.2
			c0,0-2.3,0.7-6.5-0.8l-3.6,9.1c0,0-1.2,4.3,1.9,5.2l-0.3,0.9l-11.1-4.5l0.3-0.8c0,0,3.4,2,5.4-3.6l3.2-8c0,0-7.4-3.5-7.8-9.3
			c0,0,0.4-4,1.8-7.7C532.1,615.1,533.2,611.4,532.8,611.1z"/>
		<path class="st4" d="M533.8,607.6c0,0,4.9,1.5,4.3,6.5c0,0-1.8,6.4-1.8,6.7c0.1,0.3-1.5,4.6,1.7,7.4l0.6,0.2l3.8-9.7
			c0,0,0.8-3.1-1.2-4"/>
		<path class="st4" d="M562.2,618.9c0,0-4.6-2.3-7.5,1.8c0,0-3,5.9-3.3,6.1s-2.1,4.4-6.4,4.2l-0.6-0.2l3.8-9.7c0,0,1.5-2.8,3.6-2.1"
			/>
	</g>
	<g>
		<g>
			<polygon class="st7" points="279.9,501.2 284.2,491.3 283.6,491.2 282.8,489.9 279.2,489 277.6,490.2 277.1,490.1 277.8,500.8 
							"/>
			<path class="st1" d="M284.6,491C284.6,491,284.6,491,284.6,491c0.1,0.2,0.1,0.3,0,0.5l-4.3,9.9c-0.1,0.2-0.3,0.4-0.6,0.3
				l-2.1-0.4c-0.2,0-0.4-0.2-0.4-0.5l-0.7-10.8c0-0.2,0.1-0.3,0.2-0.4c0.1-0.1,0.3-0.2,0.5-0.1l0.3,0.1l1.4-1
				c0.1-0.1,0.3-0.1,0.4-0.1l3.6,0.9c0.1,0,0.3,0.1,0.3,0.2l0.7,1.1l0.3,0.1C284.4,490.8,284.6,490.9,284.6,491z M279.6,500.6
				l3.9-8.9c-0.1,0-0.2-0.1-0.2-0.2l-0.7-1.1l-3.2-0.7l-1.4,1c-0.1,0.1-0.2,0.1-0.3,0.1l0.7,9.7L279.6,500.6z"/>
		</g>
		<polygon class="st1" points="277.2,500.7 280.5,501.3 277.6,508 		"/>
		<g>
			<path class="st8" d="M299,405.8l-1.7-0.3l-3.2-0.6l-0.2,0l-2-0.3l1.5-8.7c0.3-1.5,1.2-2.6,2.2-2.4l3.7,0.6c0.9,0.2,1.5,1.5,1.2,3
				L299,405.8z"/>
			<path class="st1" d="M300.6,394.5c0.4,0.7,0.6,1.7,0.4,2.7l-1.5,8.7c0,0.3-0.3,0.5-0.6,0.4l-7.1-1.2c-0.2,0-0.3-0.1-0.4-0.2
				c-0.1-0.1-0.1-0.2-0.1-0.4l1.5-8.7c0.2-1.1,0.7-2,1.4-2.5c0.4-0.3,0.9-0.4,1.4-0.3l3.7,0.6C299.8,393.6,300.3,394,300.6,394.5z
				 M298.5,405.1l1.4-8.2c0.1-0.8,0-1.5-0.3-2c-0.1-0.2-0.3-0.4-0.5-0.4l-3.7-0.6c-0.2,0-0.4,0-0.6,0.2c-0.5,0.3-0.8,1-1,1.8
				l-1.4,8.1L298.5,405.1z"/>
		</g>
		<g>
			<path class="st9" d="M279.7,487.4c0,0,0,0.1,0,0.1c-0.3,1.6-1.1,2.8-1.9,2.7l-0.7-0.1l14.7-85.3l2.1,0.4L279.7,487.4z"/>
			<path class="st1" d="M294.4,404.9c0.1,0.1,0.1,0.2,0.1,0.4l-14.2,82.3l0,0.1c-0.4,2-1.4,3.3-2.5,3.1l-0.7-0.1
				c-0.3,0-0.5-0.3-0.4-0.6l14.7-85.3c0-0.1,0.1-0.3,0.2-0.3c0.1-0.1,0.3-0.1,0.4-0.1l2.1,0.4C294.2,404.7,294.3,404.7,294.4,404.9z
				 M277.7,489.6l0.2,0c0.2,0,0.9-0.7,1.2-2.2l14.1-81.8l-1-0.2L277.7,489.6z"/>
		</g>
		<g>
			<path class="st9" d="M297.2,405.7L283,488c-0.3,1.7-1.1,2.9-1.8,2.8l-0.9-0.2c-0.7-0.1-1-1.5-0.8-3.1c0,0,0-0.1,0-0.1l14.2-82.3
				L297.2,405.7z"/>
			<path class="st1" d="M297.7,405.4c0.1,0.1,0.1,0.2,0.1,0.4l-14.2,82.3c-0.3,1.8-1.2,3.4-2.4,3.2l-0.9-0.2c-0.2,0-0.6-0.2-0.9-0.6
				c-0.4-0.7-0.5-1.8-0.4-3.1c0,0,0-0.1,0-0.1l14.2-82.3c0-0.3,0.3-0.5,0.6-0.4l3.4,0.6C297.4,405.2,297.6,405.3,297.7,405.4z
				 M280.3,490c0.1,0.1,0.1,0.1,0.1,0.1l0.9,0.2c0.2,0,0.9-0.7,1.2-2.4l14.1-81.7l-2.4-0.4l-14.1,81.7
				C279.9,488.7,280,489.6,280.3,490z"/>
		</g>
		<g>
			<path class="st9" d="M284.2,491.3l-0.4-0.1c-0.7-0.1-1-1.6-0.8-3.2l14.2-82.3l1.7,0.3L284.2,491.3z"/>
			<path class="st1" d="M299.4,405.7c0.1,0.1,0.1,0.2,0.1,0.4l-14.7,85.3c0,0.1-0.1,0.3-0.2,0.3c-0.1,0.1-0.3,0.1-0.4,0.1l-0.4-0.1
				c-0.2,0-0.6-0.2-0.9-0.6c-0.4-0.7-0.6-1.9-0.3-3.2l14.2-82.3c0-0.1,0.1-0.3,0.2-0.3c0.1-0.1,0.3-0.1,0.4-0.1l1.7,0.3
				C299.2,405.5,299.3,405.6,299.4,405.7z M283.8,490.6l14.5-84.2l-0.7-0.1l-14.1,81.7C283.3,489.3,283.5,490.2,283.8,490.6
				C283.7,490.6,283.7,490.6,283.8,490.6z"/>
		</g>
	</g>
	<g>
		<g>
			<polygon class="st7" points="907.8,549.3 902,563.5 902.8,563.6 904,565.5 909.2,566.6 911.4,564.9 912.2,565 910.8,549.7 			"/>
			<path class="st1" d="M901.4,564C901.4,563.9,901.4,563.9,901.4,564c-0.1-0.2-0.2-0.5-0.1-0.7l5.8-14.2c0.1-0.3,0.5-0.5,0.8-0.5
				l3,0.4c0.3,0.1,0.6,0.3,0.6,0.7l1.4,15.3c0,0.2-0.1,0.5-0.2,0.6c-0.2,0.2-0.4,0.2-0.6,0.2l-0.4-0.1l-2,1.5
				c-0.2,0.1-0.4,0.2-0.6,0.1l-5.2-1.1c-0.2,0-0.4-0.2-0.5-0.3l-1.1-1.6l-0.4-0.1C901.7,564.3,901.5,564.1,901.4,564z M908.3,550.1
				l-5.2,12.8c0.1,0.1,0.2,0.1,0.3,0.3l1.1,1.6l4.5,1l2-1.4c0.1-0.1,0.2-0.1,0.4-0.1l-1.3-13.8L908.3,550.1z"/>
		</g>
		<polygon class="st1" points="911.7,549.9 906.9,549.2 910.7,539.6 		"/>
		<g>
			<path class="st8" d="M884,685.8l2.5,0.4l4.6,0.7l0.3,0l2.8,0.4l-1.8,12.4c-0.3,2.1-1.7,3.7-3,3.5l-5.3-0.8
				c-1.3-0.2-2.2-2.1-1.9-4.2L884,685.8z"/>
			<path class="st1" d="M882.1,701.9c-0.7-1-0.9-2.4-0.7-3.8l1.8-12.4c0.1-0.4,0.4-0.7,0.9-0.6l10.2,1.5c0.2,0,0.4,0.2,0.5,0.3
				c0.1,0.2,0.1,0.3,0.1,0.5l-1.8,12.4c-0.2,1.5-0.9,2.9-1.9,3.6c-0.6,0.5-1.3,0.6-2,0.5l-5.3-0.8
				C883.2,703.1,882.6,702.7,882.1,701.9z M884.6,686.7l-1.7,11.7c-0.2,1.1,0,2.1,0.4,2.8c0.2,0.2,0.4,0.5,0.8,0.6l5.3,0.8
				c0.3,0,0.5,0,0.8-0.3c0.7-0.5,1.2-1.5,1.3-2.6l1.7-11.6L884.6,686.7z"/>
		</g>
		<g>
			<path class="st9" d="M908.5,568.9c0-0.1,0-0.1,0-0.2c0.4-2.3,1.5-4,2.6-3.8l1.1,0.2l-18,121.9l-3-0.4L908.5,568.9z"/>
			<path class="st1" d="M890.6,686.9c-0.1-0.2-0.1-0.3-0.1-0.5l17.3-117.6l0-0.2c0.5-2.8,1.9-4.7,3.4-4.5l1.1,0.2
				c0.4,0.1,0.7,0.4,0.6,0.9L895,687c0,0.2-0.1,0.4-0.3,0.5c-0.2,0.1-0.4,0.2-0.6,0.1l-3-0.4C890.9,687.2,890.7,687.1,890.6,686.9z
				 M911.3,565.7l-0.3,0c-0.3-0.1-1.3,1-1.7,3.2l-17.2,117l1.5,0.2L911.3,565.7z"/>
		</g>
		<g>
			<path class="st9" d="M886.5,685.8l17.3-117.6c0.4-2.4,1.5-4.2,2.4-4.1l1.3,0.2c1,0.1,1.5,2.1,1.2,4.4c0,0.1,0,0.1,0,0.2
				l-17.3,117.6L886.5,685.8z"/>
			<path class="st1" d="M885.9,686.2c-0.1-0.2-0.1-0.3-0.1-0.5l17.3-117.6c0.4-2.5,1.6-4.9,3.3-4.7l1.3,0.2c0.3,0,0.8,0.2,1.2,0.8
				c0.6,0.9,0.8,2.6,0.6,4.4c0,0,0,0.2,0,0.2l-17.3,117.6c-0.1,0.4-0.4,0.7-0.9,0.6l-4.9-0.7C886.2,686.5,886,686.4,885.9,686.2z
				 M907.6,565.3c-0.1-0.1-0.2-0.2-0.2-0.2l-1.3-0.2c-0.3,0-1.2,1.1-1.6,3.4l-17.2,116.8l3.4,0.5L908,568.8
				C908.2,567,908,565.8,907.6,565.3z"/>
		</g>
		<g>
			<path class="st9" d="M902,563.5l0.6,0.1c1,0.1,1.5,2.2,1.2,4.6l-17.3,117.6l-2.5-0.4L902,563.5z"/>
			<path class="st1" d="M883.4,685.9c-0.1-0.2-0.2-0.3-0.1-0.5l18-121.9c0-0.2,0.1-0.4,0.3-0.5c0.2-0.1,0.4-0.2,0.6-0.1l0.6,0.1
				c0.3,0.1,0.8,0.2,1.2,0.9c0.6,1,0.9,2.7,0.6,4.6l-17.3,117.6c0,0.2-0.1,0.4-0.3,0.5c-0.2,0.1-0.4,0.2-0.6,0.1l-2.5-0.4
				C883.7,686.2,883.5,686,883.4,685.9z M902.6,564.5l-17.7,120.3l0.9,0.1l17.2-116.8c0.3-1.7,0-3-0.4-3.5
				C902.7,564.5,902.7,564.5,902.6,564.5z"/>
		</g>
	</g>
</g>
<g>
	<path class="st10" d="M951,659c-0.9-1.5-1.8-3-2.6-4.5l0,0l0,0c-3.8-7.4-5.9-15.8-5.7-24.5c0.7-29.7,27.3-53.2,59.4-52.4
		c25.8,0.6,47.4,15,54.4,36.1l0,0c3.3,8.6,4,13.3,3.9,17.1c-0.1,3.8-3.2,4.4-0.8,11.1c2.5,6.7,7.6,18.2,8.7,20.8
		c1.1,2.6-0.3,5.6-4.4,6c-4.2,0.4-6.7,1.1-6.1,4.4c0.6,3.3,1.6,5.4,0.4,6.5c-1.3,1.1-2.4,0.9-2.5,1.6c-0.1,0.6,1.9,0.6,1.9,2.7
		c-0.1,2.1-3.9,2.9-3.3,6.5c0.7,3.7,4.1,9.4-0.4,13.4c-4.6,4-16.2,1.5-22.8,5.5c-6.6,3.9-10.1,20.5-10.1,20.5l-71.8-1.8
		c0,0,13.6-25.1,9-46.3C955.6,669.9,952.9,662.9,951,659z"/>
	<path class="st11" d="M1033.2,638.4c0.8,0.2,1.6,0.3,2.4,0.3c7.1,0.2,13-5.5,13.2-12.6c0.1-5.2-2.8-9.8-7.2-11.9c0-0.1,0-0.1,0-0.2
		c1-7.1-3.9-13.6-10.9-14.6c-1.7-0.2-3.4-0.1-5,0.3c-0.8-5.1-5.2-9.1-10.5-9.2c-3.5-0.1-6.7,1.5-8.8,4c-1.8-2.3-4.7-3.8-7.8-3.9
		c-4.4-0.1-8.3,2.6-9.9,6.4c-1.4-0.9-3.1-1.5-4.9-1.6c-5-0.1-9.1,3.8-9.3,8.8c0,0.7,0.1,1.5,0.2,2.2c-0.8-0.2-1.6-0.3-2.5-0.3
		c-7.1-0.2-13,5.5-13.2,12.6c0,1.8,0.3,3.5,0.9,5.1c-4.3,2-7.2,6.3-7.4,11.3c-0.2,7.1,5.5,13,12.6,13.2c0.6,0,1.1,0,1.6-0.1
		c2.3,4.6,6.9,7.8,12.4,7.9c3.5,0.1,6.7-1.1,9.3-3.1c2.5,2.5,5.9,4,9.7,4.1c2.8,0.1,5.4-0.7,7.7-2c12,8.6,29.6,8,29.6,8
		s-9.3-5-15.3-15.4C1025.9,647.2,1030.9,643.5,1033.2,638.4z"/>
</g>
<g>
	<g>
		<g>
			<path class="st12" d="M804.4,660.7c-1-2-5.8-10.9-8.2-16.1c-2.4-5.2,0.1-5.9,0-8.9s-0.9-6.8-4.1-13.5l0,0
				c-5.6-13.4-18.6-22.7-34.4-25.2l0.3,5.5c10.8,4.1,19.3,11.8,23.5,21.9l0,0c3.1,6.6,3.9,10.2,4,13.2s-2.3,3.6,0,8.8
				c2.3,5.1,7,13.8,8,15.8c1,2,0.1,4.4-3.1,5c-3.3,0.6-5.2,1.3-4.5,3.8c0.6,2.5,1.6,4.1,0.6,5c-0.9,0.9-1.8,0.9-1.9,1.4
				c-0.1,0.5,1.5,0.3,1.6,2c0.1,1.7-2.9,2.5-2.2,5.3c0.7,2.8,3.8,7.1,0.4,10.5s-12.6,2.1-17.6,5.6c-5,3.5-6.8,16.6-6.8,16.6
				l10.3-0.5c0,0,1.9-13.5,6.9-17c5.1-3.5,14.5-2.2,18-5.7c3.4-3.4,0.3-7.8-0.4-10.7c-0.7-2.9,2.3-3.7,2.2-5.4
				c-0.1-1.7-1.7-1.5-1.7-2.1c0.1-0.5,1-0.5,1.9-1.4c0.9-0.9,0-2.6-0.7-5.1c-0.6-2.6,1.3-3.3,4.6-3.9
				C804.5,665.2,805.4,662.7,804.4,660.7z"/>
			<path class="st13" d="M720.7,664.6c0.8-2.1,4.8-11.4,6.6-16.8c1.9-5.4-0.7-5.8-0.8-8.9s0.3-6.8,2.8-13.8l0,0
				c4.3-13.9,16.4-24.3,32-28.2l0.3,5.5c-10.3,5.1-18.1,13.6-21.3,24l0,0c-2.5,6.8-2.9,10.5-2.8,13.5s2.6,3.4,0.8,8.7
				c-1.8,5.3-5.7,14.4-6.5,16.5c-0.8,2.1,0.3,4.4,3.6,4.6c3.3,0.3,5.3,0.8,4.9,3.4c-0.4,2.6-1.2,4.3-0.2,5.1c1,0.8,1.9,0.7,2,1.2
				c0.1,0.5-1.5,0.5-1.4,2.2c0.1,1.7,3.1,2.2,2.7,5.1c-0.5,2.9-3.1,7.4,0.6,10.5c3.6,3.1,12.8,0.9,18.1,3.9c5.3,3,8.3,15.9,8.3,15.9
				l-10.3,0.5c0,0-3.1-13.2-8.5-16.3c-5.4-3-14.7-0.9-18.4-4c-3.7-3.1-1-7.8-0.6-10.7c0.5-2.9-2.6-3.5-2.7-5.2
				c-0.1-1.7,1.6-1.7,1.5-2.2c-0.1-0.5-1-0.4-2-1.2c-1-0.8-0.2-2.5,0.2-5.2c0.4-2.6-1.6-3.2-5-3.4
				C721,669.1,719.8,666.7,720.7,664.6z"/>
		</g>
		
			<rect x="756.5" y="588.7" transform="matrix(0.9989 -4.631291e-02 4.631291e-02 0.9989 -29.6138 36.0077)" class="st6" width="11.4" height="136.7"/>
	</g>
	<path class="st6" d="M765.6,728c-39.1,1.8-72.4-28.5-74.2-67.6c-1.8-39.1,28.5-72.4,67.6-74.2c39.1-1.8,72.4,28.5,74.2,67.6
		C835,692.9,804.7,726.2,765.6,728z M759.2,591.4c-36.2,1.7-64.3,32.5-62.6,68.7c1.7,36.2,32.5,64.3,68.7,62.6
		c36.2-1.7,64.3-32.5,62.6-68.7C826.2,617.9,795.4,589.8,759.2,591.4z"/>
</g>
<g>
	<path class="st6" d="M234.2,630.6c-32.9,13.4-50.3,47.3-38.7,75.7c5.1,12.5,15,21.9,27.3,27.2c-1.2,14.7-11.2,26.1-11.2,26.1
		s18.7-10.1,27.8-21.5c11.7,1.6,24.4,0.1,36.7-4.9c32.9-13.4,50.3-47.3,38.7-75.7C303.3,629.2,267.2,617.1,234.2,630.6z"/>
	<g class="st5">
		<g>
			<path class="st13" d="M337.1,653.3c0.4-1.7,0.6-3.3,0.8-5l0,0l0,0c0.9-8.1-0.1-16.4-3.3-24.3c-10.9-26.8-43.2-38.9-72.1-27.2
				c-23.3,9.5-37.9,30-37,51.6l0,0c-0.1,9,0.9,13.5,2.3,16.9c1.4,3.4,4.5,2.9,4.5,9.8c0.1,6.9-0.7,19.2-0.7,21.9
				c-0.1,2.8,2.2,5,6.1,3.9c3.9-1.1,6.5-1.3,7.1,1.9c0.6,3.2,0.4,5.4,1.9,6c1.5,0.5,2.5,0,2.8,0.6c0.4,0.5-1.6,1.2-0.8,3.1
				c0.8,1.9,4.5,1.3,5.2,4.8c0.7,3.6-0.5,9.9,5,12c5.5,2.1,15.3-4.2,22.7-2.9c7.4,1.3,16.3,15.1,16.3,15.1l64.7-26.4
				c0,0-21-18.1-24.1-39C336.8,664.8,336.8,657.5,337.1,653.3z"/>
		</g>
	</g>
</g>
<g>
	<ellipse class="st14" cx="975.5" cy="461.7" rx="61.6" ry="55.3"/>
	<path class="st15" d="M907.5,475.7c-6.3-5.7-10.2-13.7-10.2-22.5c0-17.5,15.6-31.8,34.8-31.8c19.2,0,34.8,14.2,34.8,31.8
		c0,17.5-15.6,31.8-34.8,31.8c-5.7,0-11.1-1.3-15.9-3.5c-3.1,2-6.3,3.7-9.5,5.5c-0.6,0.3-1.2-0.2-1.1-0.9
		C906.1,482.7,906.8,479.2,907.5,475.7z"/>
	<path class="st16" d="M1031,496.1c7.3-6.7,11.9-16,11.9-26.2c0-20.4-18.1-37-40.5-37s-40.5,16.6-40.5,37c0,20.4,18.1,37,40.5,37
		c6.7,0,12.9-1.5,18.5-4.1c3.6,2.3,7.4,4.3,11.1,6.4c0.7,0.4,1.4-0.3,1.3-1C1032.6,504.1,1031.8,500.1,1031,496.1z"/>
	<path class="st17" d="M1013.9,484.5h16.5c0.5,0,0.9-0.7,0.9-1.6v-0.3c0-0.9-0.4-1.6-0.9-1.6h-16.5c-0.5,0-0.9,0.7-0.9,1.6v0.3
		C1013,483.8,1013.4,484.5,1013.9,484.5z"/>
	<path class="st17" d="M972.8,484.5h35c0.5,0,0.9-0.7,0.9-1.6v-0.3c0-0.9-0.4-1.6-0.9-1.6h-35c-0.5,0-0.9,0.7-0.9,1.6v0.3
		C972,483.8,972.4,484.5,972.8,484.5z"/>
	<path class="st17" d="M998.5,460.8h-25.6c-0.5,0-0.9-0.7-0.9-1.6v-0.3c0-0.9,0.4-1.6,0.9-1.6h25.6c0.5,0,0.9,0.7,0.9,1.6v0.3
		C999.3,460.1,999,460.8,998.5,460.8z"/>
	<path class="st17" d="M1030.5,460.8h-25.6c-0.5,0-0.9-0.7-0.9-1.6v-0.3c0-0.9,0.4-1.6,0.9-1.6h25.6c0.5,0,0.9,0.7,0.9,1.6v0.3
		C1031.3,460.1,1031,460.8,1030.5,460.8z"/>
	<path class="st17" d="M1030.5,468.7h-57.6c-0.5,0-0.9-0.7-0.9-1.6v-0.3c0-0.9,0.4-1.6,0.9-1.6h57.6c0.5,0,0.9,0.7,0.9,1.6v0.3
		C1031.3,468,1031,468.7,1030.5,468.7z"/>
	<path class="st17" d="M1030.5,476.6h-23.4c-0.5,0-0.9-0.7-0.9-1.6v-0.3c0-0.9,0.4-1.6,0.9-1.6h23.4c0.5,0,0.9,0.7,0.9,1.6v0.3
		C1031.3,475.9,1031,476.6,1030.5,476.6z"/>
	<path class="st17" d="M1001.8,476.6h-28.9c-0.5,0-0.9-0.7-0.9-1.6v-0.3c0-0.9,0.4-1.6,0.9-1.6h28.9c0.5,0,0.9,0.7,0.9,1.6v0.3
		C1002.6,475.9,1002.3,476.6,1001.8,476.6z"/>
	<path class="st17" d="M941.8,467.5h13.1c0.4,0,0.7-0.7,0.7-1.6v-0.3c0-0.9-0.3-1.6-0.7-1.6h-13.1c-0.4,0-0.7,0.7-0.7,1.6v0.3
		C941.1,466.8,941.4,467.5,941.8,467.5z"/>
	<path class="st17" d="M909.3,467.5H937c0.4,0,0.7-0.7,0.7-1.6v-0.3c0-0.9-0.3-1.6-0.7-1.6h-27.7c-0.4,0-0.7,0.7-0.7,1.6v0.3
		C908.6,466.8,908.9,467.5,909.3,467.5z"/>
	<path class="st17" d="M929.6,443.8h-20.3c-0.4,0-0.7-0.7-0.7-1.6V442c0-0.9,0.3-1.6,0.7-1.6h20.3c0.4,0,0.7,0.7,0.7,1.6v0.3
		C930.3,443.1,930,443.8,929.6,443.8z"/>
	<path class="st17" d="M955,443.8h-20.3c-0.4,0-0.7-0.7-0.7-1.6V442c0-0.9,0.3-1.6,0.7-1.6H955c0.4,0,0.7,0.7,0.7,1.6v0.3
		C955.6,443.1,955.3,443.8,955,443.8z"/>
	<path class="st17" d="M955,451.8h-45.6c-0.4,0-0.7-0.7-0.7-1.6v-0.3c0-0.9,0.3-1.6,0.7-1.6H955c0.4,0,0.7,0.7,0.7,1.6v0.3
		C955.6,451.1,955.3,451.8,955,451.8z"/>
	<path class="st17" d="M955,459.7h-18.5c-0.4,0-0.7-0.7-0.7-1.6v-0.3c0-0.9,0.3-1.6,0.7-1.6H955c0.4,0,0.7,0.7,0.7,1.6v0.3
		C955.6,459,955.3,459.7,955,459.7z"/>
	<path class="st17" d="M932.2,459.7h-22.9c-0.4,0-0.7-0.7-0.7-1.6v-0.3c0-0.9,0.3-1.6,0.7-1.6h22.9c0.4,0,0.7,0.7,0.7,1.6v0.3
		C932.9,459,932.6,459.7,932.2,459.7z"/>
</g>
<g>
	<ellipse class="st18" cx="374.9" cy="456.6" rx="43.4" ry="38.9"/>
	<path class="st19" d="M398.1,401.7c0-0.3-0.3-0.6-0.6-0.7c-1.6-0.9-3.2-1.7-4.9-2.3c-0.2-0.1-0.5-0.2-0.7-0.1
		c-0.4,0.1-0.5,0.5-0.6,0.9c-1.2,3.7-2.3,7.5-3.5,11.2c-0.1,0.2-0.1,0.4,0,0.6c0.1,0.2,0.3,0.3,0.5,0.3c0.9,0.4,1.9,0.8,2.8,1.3
		c0.2,0.1,0.4,0.2,0.6,0.1c0.2-0.1,0.4-0.3,0.5-0.5c1.9-3.4,3.8-6.8,5.8-10.2C398.1,402.1,398.2,401.9,398.1,401.7z"/>
	<path class="st19" d="M379.1,396.2c-0.2-0.3-0.5-0.4-0.9-0.4c-1.8-0.2-3.6-0.2-5.5-0.1c-0.2,0-0.5,0-0.7,0.2
		c-0.3,0.2-0.3,0.7-0.2,1c0.5,3.9,1,7.8,1.5,11.7c0,0.2,0.1,0.4,0.2,0.6c0.1,0.1,0.4,0.1,0.6,0.1c1,0,2.1,0,3.1,0
		c0.2,0,0.4,0,0.6-0.1c0.2-0.2,0.2-0.4,0.3-0.7c0.3-3.9,0.7-7.8,1.1-11.7C379.2,396.6,379.2,396.4,379.1,396.2z"/>
	<path class="st19" d="M411.9,416.8c0.2-0.3,0.1-0.6-0.1-0.9c-0.7-1.6-1.5-3.2-2.5-4.7c-0.1-0.2-0.3-0.4-0.5-0.5
		c-0.3-0.1-0.7,0.1-1,0.3c-3.1,2.4-6.2,4.7-9.4,7.1c-0.2,0.1-0.3,0.3-0.4,0.5c0,0.2,0.1,0.4,0.2,0.5c0.5,0.9,1,1.7,1.5,2.6
		c0.1,0.2,0.2,0.3,0.4,0.4c0.2,0.1,0.5,0,0.7-0.1c3.5-1.7,7-3.3,10.6-4.9C411.6,417,411.8,416.9,411.9,416.8z"/>
	<path class="st19" d="M342.7,409.3c-0.3,0-0.6,0.3-0.8,0.5c-1.2,1.4-2.2,2.9-3.1,4.5c-0.1,0.2-0.2,0.4-0.2,0.7
		c0,0.4,0.4,0.6,0.8,0.8c3.5,1.7,7.1,3.4,10.6,5.1c0.2,0.1,0.4,0.2,0.6,0.1c0.2-0.1,0.3-0.2,0.4-0.4c0.6-0.9,1.1-1.7,1.7-2.6
		c0.1-0.2,0.2-0.4,0.2-0.6c0-0.3-0.2-0.4-0.4-0.6c-3.1-2.4-6.1-4.8-9.2-7.3C343.1,409.5,342.9,409.4,342.7,409.3z"/>
	<path class="st19" d="M352.3,401.8c0-0.3,0.3-0.6,0.5-0.8c1.5-1.1,3-2.1,4.7-2.9c0.2-0.1,0.4-0.2,0.7-0.2c0.4,0.1,0.6,0.5,0.7,0.8
		c1.6,3.6,3.1,7.2,4.7,10.8c0.1,0.2,0.2,0.4,0.1,0.6c-0.1,0.2-0.2,0.3-0.4,0.4c-0.9,0.5-1.8,1-2.7,1.6c-0.2,0.1-0.4,0.2-0.6,0.2
		c-0.3,0-0.4-0.3-0.6-0.5c-2.3-3.2-4.6-6.3-6.9-9.5C352.4,402.2,352.3,402.1,352.3,401.8z"/>
	<g>
		<path class="st15" d="M401.9,439.7c-0.1-14.3-12.4-25.7-27.4-25.5c-15,0.1-27,11.8-26.9,26.1c0.1,8.4,4.4,15.9,11,20.5
			c0,0,0,0,0,0c0.1,8.6,7.5,15.5,16.5,15.4c9-0.1,16.3-7.1,16.2-15.7c0,0,0,0,0,0C397.8,455.6,402,448.1,401.9,439.7z"/>
		<ellipse class="st16" cx="374.9" cy="440.6" rx="18.2" ry="17.5"/>
		<path class="st16" d="M384.3,476l-18.3,0.2c-1,0-1.8-0.8-1.9-1.8l0,0c0-1,0.8-1.8,1.8-1.9l18.3-0.2c1,0,1.8,0.8,1.9,1.8l0,0
			C386.1,475.2,385.3,476,384.3,476z"/>
		<path class="st16" d="M382.5,480.2l-14.8,0.1c-1,0-1.8-0.8-1.9-1.8l0,0c0-1,0.8-1.8,1.8-1.9l14.8-0.1c1,0,1.8,0.8,1.9,1.8l0,0
			C384.4,479.4,383.5,480.2,382.5,480.2z"/>
		<path class="st16" d="M381.1,484.4l-11.8,0.1c-1,0-1.8-0.8-1.9-1.8l0,0c0-1,0.8-1.8,1.8-1.9l11.8-0.1c1,0,1.8,0.8,1.9,1.8l0,0
			C382.9,483.6,382.1,484.4,381.1,484.4z"/>
		<path class="st16" d="M380.1,488.6l-9.7,0.1c-1,0-1.8-0.8-1.9-1.8l0,0c0-1,0.8-1.8,1.8-1.9l9.7-0.1c1,0,1.8,0.8,1.9,1.8v0
			C381.9,487.8,381.1,488.6,380.1,488.6z"/>
		<polygon class="st17" points="383.8,437.8 377.8,437.8 377.8,431.8 372.6,431.8 372.6,437.8 366.6,437.8 366.6,443 372.6,443 
			372.6,449 377.8,449 377.8,443 383.8,443 		"/>
	</g>
</g>
<g>
	<path class="st11" d="M570.9,413.8c0-0.1,0-0.2,0-0.3c1-8.7-5.2-16.6-13.9-17.7c-2.1-0.3-4.2-0.1-6.2,0.5c-1.2-6.3-6.7-11-13.3-11
		c-4.3,0-8.2,2-10.7,5.2c-2.3-2.8-5.8-4.5-9.8-4.5c-5.4,0-10.1,3.4-11.9,8.2c-1.7-1.1-3.8-1.8-6-1.8c-6.1,0-11.1,5-11.1,11.1
		c0,0.9,0.1,1.8,0.3,2.7c-1-0.2-2-0.3-3.1-0.3c-8.8,0-15.9,7.1-15.9,15.9c0,2.2,0.5,4.3,1.3,6.2c-5.2,2.6-8.7,8-8.7,14.2
		c0,8.8,7.1,15.9,15.9,15.9c0.7,0,1.4,0,2-0.1c2.9,5.6,8.8,9.4,15.5,9.4c2.6,0,5-0.6,7.2-1.6c9.7,10.4,8,22.5,7.9,23.1h8.2
		c0.1-0.6,1.2-6.3-1.1-13.9c-0.7-2.2-1.7-4.8-3.3-7.5c1.4,0.4,2.9,0.5,4.4,0.5c8.4,0,15.4-5.9,17.1-13.7c2.3,1,4.8,1.5,7.5,1.5
		c8.1,0,15-4.9,17.9-11.9c1,0.2,2,0.3,3,0.3c8.8,0,15.9-7.1,15.9-15.9C580.2,421.8,576.4,416.3,570.9,413.8z"/>
	<path id="XMLID_2215_" class="st20" d="M548.3,429.9v-8.7H542c-0.2-0.8-0.4-1.5-0.6-2.3l5.5-3.2l-4.4-7.5l-5.5,3.2
		c-0.5-0.6-1.1-1.1-1.7-1.7l3.2-5.5l-7.5-4.4l-3.2,5.5c-0.7-0.2-1.5-0.5-2.3-0.6v-6.4h-8.7v6.4c-0.8,0.2-1.5,0.4-2.3,0.6l-3.2-5.5
		l-7.5,4.4l3.2,5.5c-0.6,0.5-1.1,1.1-1.7,1.7l-5.5-3.2l-4.4,7.5l5.5,3.2c-0.2,0.7-0.5,1.5-0.6,2.3h-6.4v8.7h6.4
		c0.2,0.8,0.4,1.5,0.6,2.3l-5.5,3.2l4.4,7.5l5.5-3.2c0.5,0.6,1.1,1.1,1.7,1.7l-3.2,5.5l7.5,4.4l3.2-5.5c0.7,0.2,1.5,0.5,2.3,0.6v6.4
		h8.7v-6.4c0.8-0.2,1.5-0.4,2.3-0.6l3.2,5.5l7.5-4.4l-3.2-5.5c0.6-0.5,1.1-1.1,1.7-1.7l5.5,3.2l4.4-7.5l-5.5-3.2
		c0.2-0.7,0.5-1.5,0.6-2.3H548.3z M536.6,425.6c0,8.5-6.9,15.5-15.5,15.5c-8.5,0-15.5-6.9-15.5-15.5c0-8.5,6.9-15.5,15.5-15.5
		C529.7,410.1,536.6,417,536.6,425.6z"/>
</g>
<g>
	<path class="st11" d="M875.9,415c-1.5-1.1-3.3-1.2-4-0.2l-2.3,3.1c-0.8,1-0.2,2.7,1.3,3.8l4.1,3.1l-0.8,1.1l-5.6-4.2
		c-1.8-1.3-3.9-1.4-4.8-0.2l-2.8,3.7c-0.9,1.2-0.2,3.3,1.6,4.6l4.9,3.7l-10.6,14.1l-4.9-3.7c-1.8-1.3-3.9-1.4-4.8-0.2l-2.8,3.7
		c-0.9,1.2-0.2,3.3,1.6,4.6l5,3.8l-0.8,1l-4.1-3.1c-1.5-1.1-3.3-1.2-4-0.2l-2.3,3.1c-0.8,1-0.2,2.7,1.3,3.8l14.3,10.8
		c1.5,1.1,3.3,1.2,4,0.2l2.3-3.1c0.8-1,0.2-2.7-1.3-3.8l-4.1-3.1l0.8-1l6,4.6c1.8,1.3,3.9,1.4,4.8,0.2l2.8-3.7
		c0.9-1.2,0.2-3.3-1.6-4.6l-4.9-3.7l10.6-14.1l4.9,3.7c1.8,1.3,3.9,1.4,4.8,0.2l2.8-3.7c0.9-1.2,0.2-3.3-1.6-4.6l-5.4-4.1l0.8-1.1
		l4.1,3.1c1.5,1.1,3.3,1.2,4,0.2l2.3-3.1c0.8-1,0.2-2.7-1.3-3.8L875.9,415z"/>
</g>
<g>
	<circle class="st17" cx="622.6" cy="447.7" r="17.6"/>
	<path class="st15" d="M622.6,467.3c-10.8,0-19.6-8.8-19.6-19.6c0-10.8,8.8-19.6,19.6-19.6c10.8,0,19.6,8.8,19.6,19.6
		C642.2,458.5,633.4,467.3,622.6,467.3z M622.6,432.1c-8.6,0-15.7,7-15.7,15.7c0,8.6,7,15.7,15.7,15.7s15.7-7,15.7-15.7
		C638.3,439.1,631.3,432.1,622.6,432.1z"/>
	<path class="st15" d="M622.7,435.2c-0.8,0-1.4,0.7-1.4,1.6v10h-10.6c-0.8,0-1.4,0.7-1.4,1.6c0,0.9,0.6,1.6,1.4,1.6h12
		c0.8,0,1.4-0.7,1.4-1.6v-11.6C624.2,435.9,623.5,435.2,622.7,435.2z"/>
</g>
</svg>
