<svg xmlns="http://www.w3.org/2000/svg" viewBox="0 0 1031.28 414.76"><defs><style>.cls-1{isolation:isolate;}.cls-12,.cls-2,.cls-21{fill:#fff;}.cls-3{fill:#313c46;}.cls-4{fill:#19b0b7;}.cls-5{fill:#6ec6d8;}.cls-6{fill:none;stroke:#d7d7d6;}.cls-12,.cls-13,.cls-21,.cls-6{stroke-miterlimit:10;}.cls-7{opacity:0.6;}.cls-8{fill:#f06024;}.cls-9{fill:#fff8e3;}.cls-10{fill:#f59155;}.cls-11{fill:#ffdc74;}.cls-12{stroke:#444441;stroke-width:4px;}.cls-13,.cls-14{fill:#6cc0d3;}.cls-13{stroke:#000;}.cls-15{fill:#2ed337;}.cls-16{mix-blend-mode:multiply;}.cls-17{fill:#ffb8b8;}.cls-18{fill:#f0626e;}.cls-19{fill:#213150;}.cls-20{fill:#f9f2ff;}.cls-21{stroke:#6b6b66;stroke-width:3px;}.cls-22{fill:#ded6e8;}.cls-23{fill:#116d7c;}</style></defs><title>hero_home_bg_1</title><g class="cls-1"><g id="Layer_1" data-name="Layer 1"><polygon class="cls-2" points="776.94 152.7 688.15 136.79 711.52 26.49 800.32 42.4 776.94 152.7"/><path class="cls-3" d="M726.21,482.43l.23-1.12,23.61-111.43,91.24,16.34-.23,1.12L817.44,498.78ZM752,372.57l-22.9,108.05,86.35,15.47L838.37,388Z" transform="translate(-39.52 -344.73)"/><polygon class="cls-2" points="691.49 141.08 622.75 87.01 702.21 1.62 770.95 55.68 691.49 141.08"/><path class="cls-3" d="M660.51,431.87l.81-.87,80.26-86.27.95.74,69.69,54.82-.81.87-80.26,86.26-.94-.75ZM741.86,348,664,431.61l66.85,52.58,77.84-83.65Z" transform="translate(-39.52 -344.73)"/><path class="cls-3" d="M174.49,614.44,43.06,598.61a4,4,0,0,1-3.51-4.48L60,424a4,4,0,0,1,4.48-3.53l131.43,15.82a4,4,0,0,1,3.51,4.49L179,610.91A4,4,0,0,1,174.49,614.44ZM44.37,594l129.94,15.65L194.61,441,64.67,425.33Z" transform="translate(-39.52 -344.73)"/><path class="cls-2" d="M174,610.65,44.47,595.07a1.61,1.61,0,0,1-1.4-1.8L63.24,425.7a1.63,1.63,0,0,1,1.8-1.42l129.47,15.59a1.63,1.63,0,0,1,1.41,1.8L175.74,609.25A1.6,1.6,0,0,1,174,610.65Z" transform="translate(-39.52 -344.73)"/><rect class="cls-2" x="126.87" y="403.96" width="6.71" height="68.45" transform="translate(-359.89 170.42) rotate(-83.14)"/><path class="cls-3" d="M165.67,448,93.4,439.32l1.32-11,72.27,8.7Zm-67.42-12.5,63.62,7.66.28-2.33-63.63-7.67Z" transform="translate(-39.52 -344.73)"/><path class="cls-2" d="M141.56,423.34a10.66,10.66,0,0,0,2.14-5,11,11,0,0,0-21.9-2.64,10.74,10.74,0,0,0,.89,5.41L118,420.5l-1.11,9.26,28.2,3.4,1.11-9.26Z" transform="translate(-39.52 -344.73)"/><path class="cls-3" d="M144.84,435.32l-28.19-3.4a2.17,2.17,0,0,1-1.9-2.42l1.11-9.25a2.19,2.19,0,0,1,2.42-1.9l1.43.17a11.29,11.29,0,0,1-.07-3.12,13.2,13.2,0,1,1,26.22,3.16,12.39,12.39,0,0,1-.8,3l1.42.16a2.17,2.17,0,0,1,1.9,2.42l-1.11,9.25A2.19,2.19,0,0,1,144.84,435.32Zm-25.51-7.46,23.87,2.87.6-4.93-2.49-.3a2.16,2.16,0,0,1-1.74-1.28,2.21,2.21,0,0,1,.23-2.15,8.57,8.57,0,0,0,1.73-4A8.85,8.85,0,1,0,124,415.92a8.7,8.7,0,0,0,.74,4.33,2.18,2.18,0,0,1-2.28,3l-2.49-.3Z" transform="translate(-39.52 -344.73)"/><path class="cls-4" d="M87.84,520.6,66.53,518l2.57-21.3,21.31,2.56ZM67.8,517l19.06,2.3,2.29-19.06L70.09,498Z" transform="translate(-39.52 -344.73)"/><path class="cls-3" d="M89.14,522.25l-24.26-2.92,2.92-24.26L92.07,498Zm-19.68-6.51,16.09,1.94,1.94-16.1L71.4,499.64Z" transform="translate(-39.52 -344.73)"/><path class="cls-4" d="M83.58,556l-21.3-2.56,2.56-21.31,21.31,2.57Zm-20-3.55,19.06,2.29,2.29-19.05-19-2.3Z" transform="translate(-39.52 -344.73)"/><path class="cls-3" d="M84.89,557.62,60.62,554.7l2.92-24.27,24.27,2.92ZM65.2,551.11,81.3,553l1.93-16.11L67.13,535Z" transform="translate(-39.52 -344.73)"/><path class="cls-4" d="M79.64,588.73l-21.31-2.56,2.57-21.31,21.31,2.57Zm-20-3.55,19.06,2.29L81,568.41l-19.06-2.29Z" transform="translate(-39.52 -344.73)"/><path class="cls-3" d="M80.94,590.4l-24.27-2.92L59.6,563.2l24.26,2.92Zm-19.68-6.53,16.09,1.94,1.94-16.09-16.1-1.94Z" transform="translate(-39.52 -344.73)"/><polygon class="cls-3" points="132.42 170.34 61.17 161.77 61.7 157.37 132.95 165.95 132.42 170.34"/><polygon class="cls-3" points="130.65 185.08 59.39 176.5 59.92 172.1 131.18 180.68 130.65 185.08"/><rect class="cls-3" x="129.77" y="507.61" width="4.43" height="71.77" transform="translate(-462.91 264.83) rotate(-83.13)"/><rect class="cls-3" x="128" y="522.35" width="4.43" height="71.77" transform="translate(-479.1 276.05) rotate(-83.13)"/><rect class="cls-3" x="126.23" y="540.44" width="4.43" height="71.77" transform="translate(-498.6 290.3) rotate(-83.14)"/><polygon class="cls-3" points="122.49 252.82 51.24 244.24 51.77 239.84 123.02 248.42 122.49 252.82"/><path class="cls-5" d="M108.11,454.63s-1.73-2.17-2.22-2.23c0,0,0-1.37,2-.78a8.32,8.32,0,0,1,2.91,1.35s3,2.4,2.7,8.1,1.27,8.72,1.27,8.72,2.22,4.73,5.7,4.95l1.79-12.92s1-6.4-3.76-6.38l.18-1.35,14.21,2-.24,1.18a3.85,3.85,0,0,0-4.49,3l-.63,2.26-1.8,13s7.47,1.07,10-11.26c0,0,2.42-8.88,8.63-7.74,0,0,1.72.23.32,1.33s-1.68.75-2.07,1.75l-1,1.64-.82,3.69s-.41,9.46-7.76,12c0,0-2.46,1.53-7.65.93l-1.52,11.5s-.11,5.31,3.72,5.41l-.14,1.11-14-1.92.13-1s4.43,1.31,5.18-5.69l1.33-10.07s-9.45-1.89-11.59-8.46a40.45,40.45,0,0,1-.2-9.31S108.56,454.85,108.11,454.63Z" transform="translate(-39.52 -344.73)"/><path class="cls-6" d="M108.22,450.33s6.09.32,6.76,6.16c0,0-.27,7.83-.12,8.14s-.37,5.7,4.12,8l.76.1,1.6-12.16s0-3.74-2.51-4.26" transform="translate(-39.52 -344.73)"/><path class="cls-6" d="M144,455.1s-6-1.27-8.13,4.2c0,0-1.77,7.63-2,7.89s-1.12,5.6-6,6.67l-.76-.09,1.61-12.16s1-3.62,3.52-3.47" transform="translate(-39.52 -344.73)"/><g class="cls-7"><path class="cls-8" d="M610.66,614.24,504.72,570.16a1.6,1.6,0,0,0-2.08.86L444,712a1.59,1.59,0,0,0,.86,2.08l105.94,44.08a1.59,1.59,0,0,0,2.08-.86l58.66-141A1.58,1.58,0,0,0,610.66,614.24Z" transform="translate(-39.52 -344.73)"/><path class="cls-8" d="M611.1,613.18,505.16,569.1a2.82,2.82,0,0,0-3.58,1.48l-2.83,6.82-4.8-2c-.45-.2-.86-.24-.92-.11l-.28.66c-.05.13.27.4.73.59l4.79,2-.81,2-4.8-2c-.45-.18-.87-.23-.92-.09l-.27.65c-.06.14.27.4.72.59l4.79,2-3.57,8.59-4.79-2c-.46-.2-.87-.24-.93-.11l-.13.33h0l-.14.33c-.06.13.27.4.72.59l4.79,2-.81,2-4.79-2c-.46-.19-.87-.23-.93-.1l-.27.66c-.06.13.27.4.73.59l4.78,2L489,600.79l-4.74-2c-.46-.19-.88-.24-.93-.1l-.27.65c-.06.14.27.4.72.59l4.75,2-.82,1.95-4.74-2c-.46-.19-.87-.23-.93-.1l-.14.33h0l-.13.33c-.06.13.27.39.72.58l4.75,2-3.57,8.59-4.75-2c-.46-.19-.87-.24-.93-.11l-.13.33h0l-.14.33c-.05.13.27.4.72.59l4.75,2-.81,2-4.75-2c-.45-.18-.87-.23-.92-.09l-.14.33h0l-.14.32c-.05.14.27.4.73.59l4.74,2-3.34,8-4.83-2c-.46-.19-.87-.23-.93-.1l-.27.66c-.05.13.27.39.72.58l4.84,2-.82,2-4.83-2c-.46-.19-.87-.23-.92-.1l-.14.33h0l-.14.33c-.05.13.27.39.73.58l4.83,2-3.49,8.38-4.73-2c-.47-.19-.88-.23-.93-.1l-.28.66c-.06.13.27.4.73.58l4.74,2-.81,2-4.75-2c-.46-.19-.87-.24-.93-.1l-.13.32h0l-.14.33c0,.14.27.4.73.59l4.74,2L468,651.33l-4.75-2c-.45-.19-.87-.23-.92-.1l-.14.33h0l-.13.33c-.06.13.26.39.72.58l4.74,2-.81,1.95-4.74-2c-.46-.19-.88-.24-.93-.1l-.28.66c-.05.13.27.39.73.58l4.74,2-3.33,8-4.84-2c-.45-.19-.86-.24-.92-.11l-.28.66c-.05.14.27.4.73.59l4.83,2-.81,2-4.83-2c-.46-.19-.87-.24-.93-.1l-.14.33h0l-.14.32c-.05.14.27.4.73.59l4.83,2-3,7.15-4.79-2c-.46-.19-.87-.24-.93-.1l-.27.65c-.06.14.27.4.72.59l4.79,2-.81,2-4.79-2c-.46-.19-.87-.24-.92-.1l-.15.33h0l-.13.32c-.06.14.27.4.73.59l4.78,2-3.57,8.59-4.79-2c-.45-.19-.87-.23-.92-.11l-.28.67c-.05.13.27.39.73.58l4.79,2-.82,1.95-4.79-2c-.45-.19-.87-.24-.92-.11l-.28.66c0,.14.27.4.73.59l4.79,2-3.34,8-4.88-2c-.46-.19-.87-.24-.93-.1l-.27.65c-.05.14.27.4.73.59l4.87,2-.81,2-4.88-2c-.46-.19-.87-.23-.92-.1l-.14.33h0l-.14.33c0,.13.27.39.73.58l4.87,2-3,7.24a2.76,2.76,0,0,0,1.49,3.59l105.94,44.07a2.66,2.66,0,0,0,1,.21,2.72,2.72,0,0,0,2.52-1.69l58.66-141a2.76,2.76,0,0,0-1.48-3.59Zm-.64,2.69-58.66,141a.44.44,0,0,1-.41.27L445.29,713a.46.46,0,0,1-.25-.59l3-7.24,3.05,1.27a1.38,1.38,0,0,0,.79,1.25A1.47,1.47,0,0,0,453,705a1.35,1.35,0,0,0-1.44.32l-3.06-1.27.82-2,3,1.27a1.38,1.38,0,0,0,.79,1.25,1.47,1.47,0,0,0,1.13-2.71,1.4,1.4,0,0,0-1.45.32l-3-1.27,3.33-8,3.14,1.3a1.38,1.38,0,0,0,.79,1.25,1.47,1.47,0,1,0,1.13-2.71,1.37,1.37,0,0,0-1.44.32l-3.14-1.31.81-1.95,3.14,1.3a1.37,1.37,0,0,0,.79,1.25,1.47,1.47,0,1,0,1.13-2.71,1.35,1.35,0,0,0-1.44.32l-3.14-1.31,3.57-8.59,3.14,1.31a1.38,1.38,0,0,0,.79,1.25,1.46,1.46,0,0,0,1.92-.79,1.47,1.47,0,0,0-.79-1.92,1.39,1.39,0,0,0-1.45.32L459,679l.82-2,3.14,1.31a1.39,1.39,0,0,0,.79,1.25,1.47,1.47,0,0,0,1.13-2.72,1.4,1.4,0,0,0-1.45.32l-3.14-1.31,3-7.14,3.09,1.28a1.38,1.38,0,0,0,.8,1.25,1.47,1.47,0,0,0,1.92-.79,1.48,1.48,0,0,0-.79-1.92,1.41,1.41,0,0,0-1.45.32l-3.1-1.28.82-2,3.09,1.29a1.39,1.39,0,0,0,.8,1.25,1.47,1.47,0,1,0,1.12-2.71,1.37,1.37,0,0,0-1.44.31l-3.1-1.28,3.34-8,3.18,1.33a1.39,1.39,0,0,0,.8,1.25,1.47,1.47,0,0,0,1.13-2.71,1.39,1.39,0,0,0-1.45.31l-3.18-1.32.81-1.95,3.18,1.32a1.39,1.39,0,0,0,.8,1.25,1.47,1.47,0,0,0,1.13-2.71,1.37,1.37,0,0,0-1.45.32l-3.18-1.33,3.57-8.58,3.18,1.32a1.39,1.39,0,0,0,.8,1.25,1.47,1.47,0,1,0,1.12-2.71,1.37,1.37,0,0,0-1.44.32l-3.18-1.32.81-2,3.18,1.32a1.37,1.37,0,0,0,.79,1.25,1.47,1.47,0,1,0,1.13-2.71,1.35,1.35,0,0,0-1.44.32l-3.19-1.32,3.49-8.38L482,632.3a1.38,1.38,0,0,0,.79,1.25,1.49,1.49,0,0,0,1.93-.79,1.47,1.47,0,0,0-.8-1.92,1.38,1.38,0,0,0-1.44.32l-3.1-1.29.82-2,3.09,1.28a1.37,1.37,0,0,0,.79,1.25,1.47,1.47,0,1,0,1.13-2.71,1.36,1.36,0,0,0-1.44.32l-3.1-1.29,3.34-8,3.18,1.32a1.39,1.39,0,0,0,.8,1.25,1.47,1.47,0,1,0,1.12-2.71,1.36,1.36,0,0,0-1.44.32l-3.18-1.33.81-2L488.5,617a1.4,1.4,0,0,0,.8,1.26,1.47,1.47,0,1,0,1.12-2.72,1.38,1.38,0,0,0-1.44.32l-3.18-1.32,3.57-8.59,3.18,1.32a1.39,1.39,0,0,0,.79,1.26,1.49,1.49,0,0,0,1.93-.79,1.46,1.46,0,0,0-.8-1.92,1.35,1.35,0,0,0-1.44.31l-3.19-1.32.82-2,3.18,1.32a1.37,1.37,0,0,0,.79,1.25,1.47,1.47,0,0,0,1.13-2.71,1.39,1.39,0,0,0-1.44.32l-3.19-1.32,2.64-6.32,3.13,1.3a1.38,1.38,0,0,0,.8,1.25,1.47,1.47,0,0,0,1.13-2.71,1.37,1.37,0,0,0-1.45.32l-3.14-1.3.82-2,3.13,1.3a1.39,1.39,0,0,0,.8,1.25,1.47,1.47,0,1,0,1.12-2.71,1.37,1.37,0,0,0-1.44.32l-3.14-1.3,3.58-8.59,3.13,1.31a1.39,1.39,0,0,0,.79,1.25,1.48,1.48,0,0,0,1.92-.79,1.46,1.46,0,0,0-.79-1.92,1.39,1.39,0,0,0-1.45.31l-3.13-1.3.81-2,3.14,1.3a1.37,1.37,0,0,0,.79,1.25,1.47,1.47,0,0,0,1.13-2.71,1.39,1.39,0,0,0-1.45.33l-3.13-1.31,2.84-6.82a.41.41,0,0,1,.44-.24h.14L610.23,615.3a.47.47,0,0,1,.24.25A.44.44,0,0,1,610.46,615.87Z" transform="translate(-39.52 -344.73)"/></g><polygon class="cls-9" points="486.61 217.82 495.3 230.49 495.82 229.92 498.03 229.89 501.79 226.19 501.65 223.42 502.16 222.85 488.63 215.57 486.61 217.82"/><path class="cls-3" d="M534.82,576h-.05a.75.75,0,0,1-.58-.33L525.5,563a.75.75,0,0,1,.06-.94l2-2.25a.79.79,0,0,1,.94-.16L542,566.91a.71.71,0,0,1,.39.53.74.74,0,0,1-.18.65l-.31.33.13,2.46a.78.78,0,0,1-.23.58l-3.76,3.7a.8.8,0,0,1-.53.23l-1.87,0-.29.32A.76.76,0,0,1,534.82,576Zm-7.72-13.36L534.92,574a.77.77,0,0,1,.4-.11l1.9,0,3.3-3.25-.12-2.42a.85.85,0,0,1,.08-.39l-12.17-6.54Z" transform="translate(-39.52 -344.73)"/><polygon class="cls-3" points="489.25 214.88 486 218.51 480.15 209.99 489.25 214.88"/><path class="cls-10" d="M626.8,657.78l1.65-1.85,3.12-3.47.2-.22,1.89-2.11,9.33,8.38c1.6,1.44,2.16,3.42,1.25,4.44l-3.57,4c-.9,1-2.94.67-4.54-.77Z" transform="translate(-39.52 -344.73)"/><path class="cls-3" d="M639.2,668.28a5.58,5.58,0,0,1-3.58-1.55l-9.33-8.38a.76.76,0,0,1-.06-1.08l6.86-7.65a.76.76,0,0,1,1.08,0L643.5,658a5.41,5.41,0,0,1,1.93,3.58,2.57,2.57,0,0,1-.62,1.93l-3.57,4A2.68,2.68,0,0,1,639.2,668.28Zm-11.33-10.56,8.77,7.87a4.11,4.11,0,0,0,2.56,1.16,1.25,1.25,0,0,0,.9-.33l3.57-4a1.1,1.1,0,0,0,.24-.83,4,4,0,0,0-1.43-2.53l-8.76-7.86Z" transform="translate(-39.52 -344.73)"/><path class="cls-11" d="M542.9,572.76l-.14-.12c-1.7-1.58-2.51-3.47-1.8-4.26l.72-.8,91.7,82.3-2,2.26Z" transform="translate(-39.52 -344.73)"/><path class="cls-3" d="M631.34,652.91a.78.78,0,0,1-.51-.2l-88.44-79.38-.16-.13c-2.08-2-2.86-4.19-1.83-5.33l.72-.8a.75.75,0,0,1,1.08-.06l91.69,82.31a.74.74,0,0,1,.25.52.75.75,0,0,1-.2.55l-2,2.27A.79.79,0,0,1,631.34,652.91Zm-89.6-84.25-.21.23c-.23.25.09,1.65,1.75,3.19l88,79,1-1.13Z" transform="translate(-39.52 -344.73)"/><path class="cls-11" d="M628.17,655.68,539.73,576.3c-1.8-1.62-2.7-3.54-2-4.29l.87-1c.66-.74,2.58-.1,4.34,1.42a.86.86,0,0,0,.13.14L631.48,652Z" transform="translate(-39.52 -344.73)"/><path class="cls-3" d="M628.17,656.45a.76.76,0,0,1-.51-.2l-88.44-79.39c-1.9-1.7-3.22-4.08-2.09-5.36l.87-1a1.78,1.78,0,0,1,1.4-.57,7,7,0,0,1,4,1.93l.14.14L632,651.42a.76.76,0,0,1,.06,1.08l-3.31,3.69A.77.77,0,0,1,628.17,656.45Zm-88.77-85a.56.56,0,0,0-.26,0l-.87,1c-.18.21.21,1.63,2,3.2l87.87,78.88,2.29-2.55-87.87-78.87A5.84,5.84,0,0,0,539.4,571.5Z" transform="translate(-39.52 -344.73)"/><path class="cls-11" d="M534.82,575.23l.43-.48c.68-.76,2.68-.07,4.48,1.55l88.44,79.38-1.66,1.84Z" transform="translate(-39.52 -344.73)"/><path class="cls-3" d="M626.51,658.29a.73.73,0,0,1-.51-.2l-91.69-82.3a.75.75,0,0,1-.26-.52.78.78,0,0,1,.2-.55l.43-.48a1.78,1.78,0,0,1,1.4-.56,7.09,7.09,0,0,1,4.16,2l88.44,79.39a.84.84,0,0,1,.26.53.75.75,0,0,1-.2.55L627.08,658A.76.76,0,0,1,626.51,658.29ZM536,575.21l90.51,81.24.64-.71-87.88-78.88a5.73,5.73,0,0,0-3.14-1.65Z" transform="translate(-39.52 -344.73)"/><path class="cls-5" d="M532.84,611.14s-1-2.14-1.37-2.29c0,0,.29-1.12,1.83-.22a7,7,0,0,1,2.11,1.71s1.92,2.58.54,7.21-.75,7.43-.75,7.43.85,4.34,3.66,5.24L543,620s2.15-5.05-1.77-6l.42-1.07,11.27,4.54-.44.91a3.25,3.25,0,0,0-4.29,1.51l-1,1.72L543,631.87s5.92,2.42,10.55-7.18c0,0,3.83-6.79,8.69-4.57,0,0,1.37.54,0,1.16s-1.54.26-2.06,1l-1.13,1.16-1.44,2.85s-2.29,7.69-8.85,8.23c0,0-2.34.75-6.47-.82l-3.62,9.13s-1.19,4.34,1.93,5.22l-.35.88-11.07-4.47.3-.75s3.37,2,5.43-3.6l3.17-8s-7.37-3.51-7.77-9.35a34.28,34.28,0,0,1,1.76-7.69S533.16,611.41,532.84,611.14Z" transform="translate(-39.52 -344.73)"/><path class="cls-6" d="M533.81,607.63s4.94,1.52,4.28,6.46c0,0-1.83,6.37-1.77,6.66s-1.48,4.61,1.72,7.44l.6.24,3.83-9.66s.78-3.07-1.18-4" transform="translate(-39.52 -344.73)"/><path class="cls-6" d="M562.2,618.93s-4.64-2.27-7.55,1.77c0,0-3,5.9-3.27,6.07S549.3,631.14,545,631l-.59-.24,3.82-9.66s1.54-2.77,3.62-2.12" transform="translate(-39.52 -344.73)"/><polygon class="cls-9" points="240.37 156.47 244.67 146.57 244.13 146.48 243.29 145.18 239.68 144.32 238.09 145.44 237.56 145.34 238.28 156.11 240.37 156.47"/><path class="cls-3" d="M284.63,491l0,0a.52.52,0,0,1,0,.47l-4.29,9.91a.55.55,0,0,1-.59.31l-2.09-.36a.54.54,0,0,1-.44-.49l-.72-10.77a.54.54,0,0,1,.17-.44.52.52,0,0,1,.45-.12l.32.05,1.41-1a.51.51,0,0,1,.43-.08l3.61.85a.6.6,0,0,1,.33.23l.71,1.11.3,0A.55.55,0,0,1,284.63,491Zm-5.07,9.58,3.86-8.9a.53.53,0,0,1-.22-.2l-.73-1.12-3.16-.75-1.4,1a.58.58,0,0,1-.26.09l.65,9.68Z" transform="translate(-39.52 -344.73)"/><polygon class="cls-3" points="237.64 156 241.01 156.58 238.13 163.24 237.64 156"/><path class="cls-10" d="M299,405.76l-1.72-.3L294,404.9l-.2,0-2-.34,1.5-8.68c.25-1.49,1.22-2.56,2.17-2.4l3.7.64c.94.16,1.5,1.5,1.24,3Z" transform="translate(-39.52 -344.73)"/><path class="cls-3" d="M300.57,394.46a3.91,3.91,0,0,1,.41,2.71l-1.49,8.68a.54.54,0,0,1-.62.44l-7.12-1.23a.55.55,0,0,1-.36-.24.56.56,0,0,1-.07-.38l1.5-8.68a3.82,3.82,0,0,1,1.41-2.49,1.82,1.82,0,0,1,1.38-.35l3.7.64A1.88,1.88,0,0,1,300.57,394.46Zm-2.05,10.68,1.41-8.15a2.85,2.85,0,0,0-.27-1.95.85.85,0,0,0-.53-.42l-3.7-.64a.74.74,0,0,0-.58.17,2.74,2.74,0,0,0-1,1.79l-1.41,8.15Z" transform="translate(-39.52 -344.73)"/><path class="cls-11" d="M279.7,487.41s0,.09,0,.13c-.31,1.6-1.13,2.79-1.86,2.66l-.75-.13,14.73-85.28,2.11.37Z" transform="translate(-39.52 -344.73)"/><path class="cls-3" d="M294.36,404.87a.5.5,0,0,1,.07.38l-14.2,82.25,0,.14c-.38,2-1.42,3.27-2.48,3.09l-.75-.13a.53.53,0,0,1-.44-.62l14.73-85.28a.57.57,0,0,1,.22-.34.52.52,0,0,1,.4-.09l2.11.36A.57.57,0,0,1,294.36,404.87Zm-16.67,84.76.22,0c.23,0,.95-.67,1.25-2.23l14.13-81.84-1.05-.19Z" transform="translate(-39.52 -344.73)"/><path class="cls-11" d="M297.19,405.73,283,488c-.29,1.67-1.1,2.92-1.79,2.8l-.9-.15c-.69-.12-1-1.5-.77-3.11l0-.13,14.2-82.26Z" transform="translate(-39.52 -344.73)"/><path class="cls-3" d="M297.65,405.44a.5.5,0,0,1,.07.38l-14.21,82.25c-.3,1.76-1.22,3.44-2.41,3.24l-.89-.16a1.21,1.21,0,0,1-.86-.61,4.82,4.82,0,0,1-.35-3.11.89.89,0,0,1,0-.14L293.24,405a.52.52,0,0,1,.62-.43l3.42.59A.5.5,0,0,1,297.65,405.44ZM280.26,490a.51.51,0,0,0,.12.13l.91.15c.18,0,.89-.73,1.16-2.36l14.13-81.73-2.38-.41-14.11,81.73A4.06,4.06,0,0,0,280.26,490Z" transform="translate(-39.52 -344.73)"/><path class="cls-11" d="M284.19,491.3l-.45-.08c-.71-.12-1-1.57-.75-3.24l14.2-82.25,1.72.29Z" transform="translate(-39.52 -344.73)"/><path class="cls-3" d="M299.37,405.74a.5.5,0,0,1,.07.38l-14.73,85.27a.51.51,0,0,1-.22.35.56.56,0,0,1-.4.09l-.44-.08a1.26,1.26,0,0,1-.86-.62,5,5,0,0,1-.34-3.24l14.22-82.26a.54.54,0,0,1,.21-.34.55.55,0,0,1,.41-.09l1.71.3A.5.5,0,0,1,299.37,405.74Zm-15.61,84.89,14.53-84.17-.66-.12-14.12,81.73a4,4,0,0,0,.19,2.49Z" transform="translate(-39.52 -344.73)"/><polygon class="cls-9" points="868.27 204.56 862.5 218.81 863.26 218.92 864.51 220.75 869.67 221.84 871.9 220.19 872.66 220.31 871.26 205 868.27 204.56"/><path class="cls-3" d="M901.38,564l0,0a.75.75,0,0,1-.05-.67L907.07,549a.77.77,0,0,1,.82-.47l3,.43a.79.79,0,0,1,.65.69L912.94,565a.76.76,0,0,1-.87.82l-.45-.07-2,1.46a.75.75,0,0,1-.61.13l-5.17-1.09a.76.76,0,0,1-.47-.31l-1.06-1.55-.42-.06A.77.77,0,0,1,901.38,564Zm6.88-13.82L903.08,563a.73.73,0,0,1,.33.27l1.07,1.57,4.53,1,2-1.44a.84.84,0,0,1,.37-.14l-1.27-13.76Z" transform="translate(-39.52 -344.73)"/><polygon class="cls-3" points="872.17 205.14 867.35 204.43 871.22 194.86 872.17 205.14"/><path class="cls-10" d="M884,685.81l2.46.36,4.62.69.29,0,2.8.41-1.83,12.4c-.31,2.14-1.66,3.7-3,3.5l-5.3-.78c-1.34-.19-2.18-2.08-1.87-4.21Z" transform="translate(-39.52 -344.73)"/><path class="cls-3" d="M882.1,702a5.63,5.63,0,0,1-.69-3.84l1.83-12.41a.76.76,0,0,1,.87-.64l10.16,1.49a.81.81,0,0,1,.53.34.81.81,0,0,1,.12.53l-1.84,12.41a5.44,5.44,0,0,1-1.91,3.59,2.58,2.58,0,0,1-2,.54l-5.29-.77A2.67,2.67,0,0,1,882.1,702Zm2.54-15.27-1.72,11.65a4.09,4.09,0,0,0,.45,2.77,1.21,1.21,0,0,0,.77.57l5.3.78a1,1,0,0,0,.81-.26,3.94,3.94,0,0,0,1.32-2.59L893.29,688Z" transform="translate(-39.52 -344.73)"/><path class="cls-11" d="M908.53,568.92c0-.07,0-.12,0-.19.38-2.29,1.51-4,2.56-3.85l1.07.16-18,121.9-3-.45Z" transform="translate(-39.52 -344.73)"/><path class="cls-3" d="M890.57,686.91a.75.75,0,0,1-.12-.53l17.32-117.57,0-.21c.47-2.81,1.91-4.7,3.42-4.47l1.07.15a.75.75,0,0,1,.64.87l-18,121.9a.77.77,0,0,1-.3.5.76.76,0,0,1-.57.14l-3-.44A.78.78,0,0,1,890.57,686.91Zm20.74-121.23-.31,0c-.34-.06-1.32,1-1.7,3.22l-17.23,117,1.5.22Z" transform="translate(-39.52 -344.73)"/><path class="cls-11" d="M886.51,685.8l17.32-117.57c.36-2.39,1.46-4.21,2.45-4.06l1.29.19c1,.14,1.5,2.09,1.2,4.4a1.08,1.08,0,0,0,0,.19L891.41,686.52Z" transform="translate(-39.52 -344.73)"/><path class="cls-3" d="M885.87,686.22a.7.7,0,0,1-.12-.53l17.33-117.58c.37-2.52,1.63-4.94,3.32-4.7l1.28.2a1.75,1.75,0,0,1,1.24.84,6.94,6.94,0,0,1,.61,4.41s0,.17,0,.2L892.16,686.63a.75.75,0,0,1-.86.65l-4.9-.73A.7.7,0,0,1,885.87,686.22ZM907.64,565.3c-.08-.13-.16-.18-.18-.18l-1.29-.19c-.27,0-1.24,1.07-1.58,3.41L887.37,685.16l3.39.5L908,568.84A5.76,5.76,0,0,0,907.64,565.3Z" transform="translate(-39.52 -344.73)"/><path class="cls-11" d="M902,563.54l.64.1c1,.14,1.54,2.2,1.18,4.59L886.51,685.8l-2.46-.37Z" transform="translate(-39.52 -344.73)"/><path class="cls-3" d="M883.41,685.86a.71.71,0,0,1-.11-.54l18-121.89a.72.72,0,0,1,.29-.5.79.79,0,0,1,.57-.15l.64.1a1.79,1.79,0,0,1,1.24.86,7,7,0,0,1,.59,4.6L887.26,685.91a.75.75,0,0,1-.3.5.71.71,0,0,1-.56.14l-2.46-.36A.79.79,0,0,1,883.41,685.86Zm19.24-121.39L884.92,684.79l1,.14,17.21-116.82a5.65,5.65,0,0,0-.36-3.53Z" transform="translate(-39.52 -344.73)"/><path class="cls-12" d="M951,659a52.05,52.05,0,0,1-2.62-4.52h0a50.51,50.51,0,0,1-5.67-24.53c.75-29.74,27.35-53.21,59.43-52.4,25.82.65,47.36,15,54.38,36.07h0c3.35,8.6,4,13.3,3.91,17.1s-3.23,4.41-.76,11.11,7.61,18.18,8.71,20.81-.27,5.59-4.44,6-6.67,1.13-6.1,4.4,1.62,5.38.36,6.45-2.36.92-2.51,1.56,1.93.57,1.88,2.72-3.91,2.86-3.25,6.52,4.13,9.38-.43,13.36-16.21,1.55-22.85,5.48-10.14,20.5-10.14,20.5l-71.79-1.8s13.64-25.06,9-46.31C955.58,669.94,952.93,663,951,659Z" transform="translate(-39.52 -344.73)"/><path class="cls-13" d="M1033.15,638.39a12.9,12.9,0,0,0,8.42-24.19c0-.07,0-.14,0-.21a12.91,12.91,0,0,0-15.94-14.35,10.95,10.95,0,0,0-19.29-5.18,10.39,10.39,0,0,0-17.7,2.55,8.9,8.9,0,0,0-4.86-1.57,9,9,0,0,0-9.25,8.8,9.14,9.14,0,0,0,.2,2.17,13.24,13.24,0,0,0-2.47-.3A12.91,12.91,0,0,0,960,623.76a12.9,12.9,0,0,0,6.86,24.48A14.24,14.24,0,0,0,988.49,653a14.19,14.19,0,0,0,17.34,2.11c12,8.6,29.56,8,29.56,8a43.2,43.2,0,0,1-15.32-15.44A15.74,15.74,0,0,0,1033.15,638.39Z" transform="translate(-39.52 -344.73)"/><path class="cls-14" d="M804.37,660.71c-1-2-5.81-10.93-8.17-16.15s.12-5.88,0-8.93-.94-6.77-4.11-13.46h0c-5.56-13.43-18.59-22.71-34.43-25.16l.25,5.53c10.76,4.12,19.27,11.84,23.45,22h0c3.11,6.55,3.89,10.2,4,13.19s-2.29,3.64,0,8.76,7,13.83,8,15.83.11,4.4-3.15,5-5.16,1.26-4.53,3.79,1.57,4.13.64,5-1.8.85-1.88,1.37,1.55.33,1.63,2-2.91,2.46-2.18,5.3,3.76,7.12.41,10.5-12.63,2.12-17.61,5.58-6.81,16.64-6.81,16.64l10.3-.47s1.86-13.46,6.94-17,14.54-2.24,18-5.69.31-7.82-.42-10.71,2.31-3.68,2.23-5.4-1.74-1.54-1.66-2.07,1-.46,1.92-1.39,0-2.56-.66-5.14,1.31-3.3,4.63-3.87S805.4,662.75,804.37,660.71Z" transform="translate(-39.52 -344.73)"/><path class="cls-15" d="M720.68,664.59c.84-2.13,4.77-11.42,6.63-16.84s-.66-5.84-.8-8.89.31-6.83,2.84-13.78h0c4.29-13.88,16.41-24.33,32-28.23l.25,5.53c-10.33,5.1-18.08,13.57-21.32,24h0c-2.49,6.82-2.93,10.53-2.8,13.51s2.62,3.42.79,8.72-5.68,14.42-6.5,16.51.3,4.39,3.59,4.64,5.27.78,4.87,3.36-1.19,4.25-.18,5.08,1.88.68,2,1.18-1.5.48-1.43,2.17,3.12,2.18,2.67,5.07-3.09,7.44.56,10.5,12.77.94,18,3.92,8.32,16,8.32,16l-10.3.48s-3.1-13.23-8.49-16.27-14.68-.88-18.4-4-1-7.76-.58-10.7-2.64-3.46-2.71-5.18,1.59-1.69,1.46-2.2-1-.37-2-1.21-.23-2.55.18-5.18-1.61-3.16-5-3.43S719.84,666.71,720.68,664.59Z" transform="translate(-39.52 -344.73)"/><rect class="cls-8" x="756.55" y="588.74" width="11.43" height="136.71" transform="translate(-69.13 -308.72) rotate(-2.65)"/><path class="cls-8" d="M765.55,728a71,71,0,1,1,67.63-74.21A71.07,71.07,0,0,1,765.55,728Zm-6.33-136.56a65.72,65.72,0,1,0,68.69,62.6A65.78,65.78,0,0,0,759.22,591.45Z" transform="translate(-39.52 -344.73)"/><path class="cls-8" d="M234.23,630.55C201.29,644,184,677.87,195.53,706.21c5.11,12.52,15,21.85,27.32,27.22-1.16,14.75-11.22,26.06-11.22,26.06S230.34,749.41,239.4,738a71.75,71.75,0,0,0,36.72-4.87c32.94-13.45,50.27-47.32,38.7-75.66S267.17,617.1,234.23,630.55Z" transform="translate(-39.52 -344.73)"/><g class="cls-7"><g class="cls-16"><path class="cls-15" d="M337.12,653.26c.36-1.66.63-3.34.83-5h0A49.1,49.1,0,0,0,334.63,624c-10.93-26.79-43.22-38.94-72.1-27.15-23.26,9.49-37.9,30-37,51.56h0c-.07,9,.94,13.47,2.34,16.9s4.46,2.89,4.53,9.84-.65,19.15-.75,21.93,2.17,5,6.11,3.92,6.46-1.27,7.07,1.9.38,5.45,1.89,6,2.47,0,2.83.56-1.56,1.18-.78,3.12,4.54,1.25,5.21,4.81-.52,9.94,5,12,15.27-4.19,22.66-2.9,16.3,15.14,16.3,15.14l64.65-26.4s-21-18.08-24.12-39C336.77,664.79,336.77,657.51,337.12,653.26Z" transform="translate(-39.52 -344.73)"/></g></g><ellipse class="cls-17" cx="935.94" cy="116.98" rx="61.64" ry="55.33"/><path class="cls-18" d="M907.48,475.74a30.34,30.34,0,0,1-10.19-22.47c0-17.54,15.57-31.76,34.78-31.76s34.78,14.22,34.78,31.76S951.28,485,932.07,485a37.35,37.35,0,0,1-15.87-3.5c-3.06,2-6.33,3.71-9.51,5.47a.78.78,0,0,1-1.13-.87C906.13,482.66,906.79,479.2,907.48,475.74Z" transform="translate(-39.52 -344.73)"/><path class="cls-19" d="M1031,496.09a35.36,35.36,0,0,0,11.88-26.18c0-20.44-18.14-37-40.52-37s-40.52,16.57-40.52,37,18.14,37,40.52,37a43.52,43.52,0,0,0,18.49-4.08c3.56,2.31,7.37,4.33,11.08,6.37a.91.91,0,0,0,1.32-1C1032.58,504.15,1031.81,500.11,1031,496.09Z" transform="translate(-39.52 -344.73)"/><path class="cls-20" d="M1013.89,484.47h16.53c.48,0,.86-.69.86-1.55v-.32c0-.86-.38-1.56-.86-1.56h-16.53c-.48,0-.86.7-.86,1.56v.32C1013,483.78,1013.41,484.47,1013.89,484.47Z" transform="translate(-39.52 -344.73)"/><path class="cls-20" d="M972.84,484.47h35c.48,0,.86-.69.86-1.55v-.32c0-.86-.38-1.56-.86-1.56h-35c-.48,0-.86.7-.86,1.56v.32C972,483.78,972.36,484.47,972.84,484.47Z" transform="translate(-39.52 -344.73)"/><path class="cls-20" d="M998.49,460.79h-25.6c-.47,0-.86-.69-.86-1.55v-.32c0-.86.39-1.55.86-1.55h25.6c.47,0,.86.69.86,1.55v.32C999.35,460.1,999,460.79,998.49,460.79Z" transform="translate(-39.52 -344.73)"/><path class="cls-20" d="M1030.48,460.79h-25.59c-.48,0-.86-.69-.86-1.55v-.32c0-.86.38-1.55.86-1.55h25.59c.48,0,.86.69.86,1.55v.32C1031.34,460.1,1031,460.79,1030.48,460.79Z" transform="translate(-39.52 -344.73)"/><path class="cls-20" d="M1030.48,468.71H972.84c-.48,0-.86-.7-.86-1.56v-.32c0-.86.38-1.55.86-1.55h57.64c.48,0,.86.69.86,1.55v.32C1031.34,468,1031,468.71,1030.48,468.71Z" transform="translate(-39.52 -344.73)"/><path class="cls-20" d="M1030.48,476.62h-23.35c-.48,0-.86-.7-.86-1.56v-.32c0-.86.38-1.55.86-1.55h23.35c.48,0,.86.69.86,1.55v.32C1031.34,475.92,1031,476.62,1030.48,476.62Z" transform="translate(-39.52 -344.73)"/><path class="cls-20" d="M1001.79,476.62h-28.9c-.47,0-.86-.7-.86-1.56v-.32c0-.86.39-1.55.86-1.55h28.9c.47,0,.86.69.86,1.55v.32C1002.65,475.92,1002.26,476.62,1001.79,476.62Z" transform="translate(-39.52 -344.73)"/><path class="cls-20" d="M941.82,467.53h13.1c.37,0,.68-.7.68-1.56v-.32c0-.86-.31-1.55-.68-1.55h-13.1c-.38,0-.68.69-.68,1.55V466C941.14,466.83,941.44,467.53,941.82,467.53Z" transform="translate(-39.52 -344.73)"/><path class="cls-20" d="M909.31,467.53H937c.37,0,.68-.7.68-1.56v-.32c0-.86-.31-1.55-.68-1.55H909.31c-.37,0-.68.69-.68,1.55V466C908.63,466.83,908.94,467.53,909.31,467.53Z" transform="translate(-39.52 -344.73)"/><path class="cls-20" d="M929.63,443.85H909.36c-.38,0-.68-.7-.68-1.56V442c0-.86.3-1.55.68-1.55h20.27c.37,0,.68.69.68,1.55v.32C930.31,443.15,930,443.85,929.63,443.85Z" transform="translate(-39.52 -344.73)"/><path class="cls-20" d="M955,443.85H934.69c-.37,0-.68-.7-.68-1.56V442c0-.86.31-1.55.68-1.55H955c.38,0,.68.69.68,1.55v.32C955.64,443.15,955.34,443.85,955,443.85Z" transform="translate(-39.52 -344.73)"/><path class="cls-20" d="M955,451.76H909.31c-.37,0-.68-.7-.68-1.56v-.31c0-.86.31-1.56.68-1.56H955c.38,0,.68.7.68,1.56v.31C955.64,451.06,955.34,451.76,955,451.76Z" transform="translate(-39.52 -344.73)"/><path class="cls-20" d="M955,459.67H936.47c-.38,0-.68-.7-.68-1.56v-.31c0-.86.3-1.56.68-1.56H955c.38,0,.68.7.68,1.56v.31C955.64,459,955.34,459.67,955,459.67Z" transform="translate(-39.52 -344.73)"/><path class="cls-20" d="M932.24,459.67H909.36c-.38,0-.68-.7-.68-1.56v-.31c0-.86.3-1.56.68-1.56h22.88c.37,0,.68.7.68,1.56v.31C932.92,459,932.61,459.67,932.24,459.67Z" transform="translate(-39.52 -344.73)"/><ellipse class="cls-21" cx="335.39" cy="111.9" rx="43.37" ry="38.94"/><path class="cls-22" d="M398.15,401.69c0-.34-.35-.56-.63-.73a30.1,30.1,0,0,0-4.94-2.33,1.11,1.11,0,0,0-.69-.1c-.35.11-.51.51-.62.87l-3.48,11.23a.86.86,0,0,0,0,.61.79.79,0,0,0,.46.34l2.84,1.27a1,1,0,0,0,.58.12c.24-.06.39-.3.52-.52,1.91-3.41,3.82-6.8,5.79-10.17A1.19,1.19,0,0,0,398.15,401.69Z" transform="translate(-39.52 -344.73)"/><path class="cls-22" d="M379.13,396.17a1.06,1.06,0,0,0-.88-.41,31.11,31.11,0,0,0-5.46-.09,1.1,1.1,0,0,0-.66.2,1.14,1.14,0,0,0-.21,1q.72,5.83,1.46,11.67a.84.84,0,0,0,.23.57.87.87,0,0,0,.55.13l3.11,0a1,1,0,0,0,.58-.14.94.94,0,0,0,.26-.68c.33-3.89.68-7.77,1.08-11.66A1,1,0,0,0,379.13,396.17Z" transform="translate(-39.52 -344.73)"/><path class="cls-22" d="M411.92,416.76a1,1,0,0,0-.07-.94,28.35,28.35,0,0,0-2.51-4.67,1,1,0,0,0-.48-.46c-.34-.12-.71.12-1,.34l-9.37,7.09a.87.87,0,0,0-.39.48.83.83,0,0,0,.16.53l1.49,2.62a.89.89,0,0,0,.39.42,1,1,0,0,0,.71-.12c3.52-1.67,7-3.32,10.57-4.93A1,1,0,0,0,411.92,416.76Z" transform="translate(-39.52 -344.73)"/><path class="cls-22" d="M342.67,409.35c-.33,0-.6.25-.81.51a30.24,30.24,0,0,0-3.06,4.53,1.14,1.14,0,0,0-.2.66c0,.37.43.59.77.75l10.57,5.14a.86.86,0,0,0,.6.12.8.8,0,0,0,.41-.4l1.68-2.62a.87.87,0,0,0,.2-.55.91.91,0,0,0-.43-.59c-3.08-2.4-6.14-4.81-9.18-7.27A1,1,0,0,0,342.67,409.35Z" transform="translate(-39.52 -344.73)"/><path class="cls-22" d="M352.3,401.84c0-.33.28-.59.55-.79a30.75,30.75,0,0,1,4.65-2.87,1.08,1.08,0,0,1,.67-.16c.36.06.57.45.72.79l4.68,10.78a.83.83,0,0,1,.1.61.8.8,0,0,1-.41.38l-2.69,1.57a.84.84,0,0,1-.56.18.89.89,0,0,1-.57-.46c-2.28-3.17-4.56-6.33-6.88-9.47A1.11,1.11,0,0,1,352.3,401.84Z" transform="translate(-39.52 -344.73)"/><path class="cls-18" d="M401.9,439.7c-.14-14.25-12.4-25.69-27.39-25.55s-27,11.82-26.88,26.07a25.38,25.38,0,0,0,11,20.52h0c.09,8.58,7.46,15.46,16.48,15.37s16.26-7.11,16.18-15.68v0A25.37,25.37,0,0,0,401.9,439.7Z" transform="translate(-39.52 -344.73)"/><ellipse class="cls-19" cx="335.39" cy="95.89" rx="18.24" ry="17.5"/><path class="cls-19" d="M384.26,476l-18.31.18a1.83,1.83,0,0,1-1.85-1.82h0a1.83,1.83,0,0,1,1.82-1.85l18.31-.18a1.84,1.84,0,0,1,1.85,1.82h0A1.83,1.83,0,0,1,384.26,476Z" transform="translate(-39.52 -344.73)"/><path class="cls-19" d="M382.52,480.23l-14.75.14a1.84,1.84,0,0,1-1.85-1.82h0a1.84,1.84,0,0,1,1.82-1.86l14.75-.14a1.84,1.84,0,0,1,1.85,1.82h0A1.84,1.84,0,0,1,382.52,480.23Z" transform="translate(-39.52 -344.73)"/><path class="cls-19" d="M381.07,484.42l-11.76.11a1.84,1.84,0,0,1-1.86-1.82h0a1.84,1.84,0,0,1,1.82-1.86l11.76-.11a1.84,1.84,0,0,1,1.86,1.82h0A1.84,1.84,0,0,1,381.07,484.42Z" transform="translate(-39.52 -344.73)"/><path class="cls-19" d="M380.09,488.6l-9.72.09a1.84,1.84,0,0,1-1.86-1.82h0a1.84,1.84,0,0,1,1.82-1.85l9.72-.09a1.84,1.84,0,0,1,1.86,1.82h0A1.84,1.84,0,0,1,380.09,488.6Z" transform="translate(-39.52 -344.73)"/><polygon class="cls-20" points="344.26 93.08 338.26 93.08 338.26 87.08 333.12 87.08 333.12 93.08 327.12 93.08 327.12 98.22 333.12 98.22 333.12 104.22 338.26 104.22 338.26 98.22 344.26 98.22 344.26 93.08"/><path class="cls-13" d="M570.93,413.77a2,2,0,0,0,0-.26,15.88,15.88,0,0,0-20.06-17.18A13.49,13.49,0,0,0,527,390.55a12.8,12.8,0,0,0-21.71,3.68,11.14,11.14,0,0,0-16.84,12,15.39,15.39,0,0,0-3.05-.3,15.89,15.89,0,0,0-14.62,22.11,15.88,15.88,0,0,0,7.16,30.06,15.05,15.05,0,0,0,2-.13,17.53,17.53,0,0,0,15.51,9.35,17.32,17.32,0,0,0,7.2-1.55,29.29,29.29,0,0,1,7.89,23.06h8.24A29.8,29.8,0,0,0,517.72,475a36.62,36.62,0,0,0-3.26-7.53,17.34,17.34,0,0,0,4.35.55,17.54,17.54,0,0,0,17.12-13.74,19.43,19.43,0,0,0,25.39-10.45,16.38,16.38,0,0,0,3,.28,15.89,15.89,0,0,0,6.62-30.33Z" transform="translate(-39.52 -344.73)"/><path class="cls-23" d="M548.33,429.92v-8.7H542c-.17-.78-.38-1.55-.62-2.29l5.52-3.19-4.35-7.54L537,411.39a20.36,20.36,0,0,0-1.68-1.67l3.2-5.53L531,399.83l-3.19,5.53a19.83,19.83,0,0,0-2.29-.62v-6.38h-8.71v6.38a19.83,19.83,0,0,0-2.29.62l-3.19-5.53-7.54,4.36,3.19,5.53a21.93,21.93,0,0,0-1.67,1.67l-5.53-3.19-4.36,7.54,5.53,3.19a19.3,19.3,0,0,0-.62,2.29h-6.37v8.7h6.37a19.46,19.46,0,0,0,.62,2.3l-5.53,3.18,4.36,7.54,5.53-3.19a21.93,21.93,0,0,0,1.67,1.67L503.75,447l7.54,4.35,3.19-5.52a22,22,0,0,0,2.29.61v6.38h8.71V446.4a22,22,0,0,0,2.29-.61l3.19,5.52L538.5,447l-3.2-5.54a20.36,20.36,0,0,0,1.68-1.67l5.53,3.19,4.35-7.54-5.52-3.18c.24-.75.45-1.51.62-2.3Zm-11.73-4.35a15.48,15.48,0,1,1-15.48-15.48A15.49,15.49,0,0,1,536.6,425.57Z" transform="translate(-39.52 -344.73)"/><path class="cls-13" d="M875.88,415c-1.46-1.1-3.27-1.19-4-.19l-2.31,3.08c-.75,1-.17,2.72,1.29,3.83l4.09,3.09-.83,1.11-5.59-4.23c-1.76-1.32-3.93-1.43-4.83-.23l-2.77,3.69c-.9,1.2-.2,3.27,1.55,4.59l4.91,3.71-10.58,14.09-4.9-3.71c-1.76-1.32-3.93-1.43-4.83-.23l-2.77,3.69c-.9,1.2-.2,3.27,1.55,4.59l5,3.78-.78,1.05-4.09-3.1c-1.46-1.1-3.27-1.19-4-.19l-2.3,3.08c-.76,1-.17,2.72,1.29,3.83l14.32,10.82c1.46,1.1,3.28,1.19,4,.19l2.31-3.08c.75-1,.16-2.72-1.3-3.83l-4.09-3.09.78-1,6,4.56c1.75,1.32,3.93,1.43,4.83.23l2.77-3.69c.9-1.2.2-3.27-1.56-4.59l-4.9-3.71L874.73,439l4.91,3.71c1.75,1.32,3.93,1.43,4.83.23l2.77-3.69c.9-1.2.2-3.27-1.56-4.59l-5.44-4.11.83-1.12,4.09,3.1c1.47,1.1,3.28,1.19,4,.19l2.31-3.08c.75-1,.16-2.72-1.3-3.83Z" transform="translate(-39.52 -344.73)"/><circle class="cls-20" cx="583.11" cy="103" r="17.61"/><path class="cls-18" d="M622.62,467.3a19.57,19.57,0,1,1,19.57-19.57A19.58,19.58,0,0,1,622.62,467.3Zm0-35.22a15.65,15.65,0,1,0,15.66,15.65A15.67,15.67,0,0,0,622.62,432.08Z" transform="translate(-39.52 -344.73)"/><path class="cls-18" d="M622.73,435.23a1.52,1.52,0,0,0-1.43,1.6v10H610.72a1.61,1.61,0,0,0,0,3.2h12a1.52,1.52,0,0,0,1.42-1.6v-11.6A1.52,1.52,0,0,0,622.73,435.23Z" transform="translate(-39.52 -344.73)"/></g></g></svg>